<svg id="Calque_1" data-name="Calque 1" xmlns="http://www.w3.org/2000/svg" viewBox="0 0 146.33 80"><g id="Groupe_32" data-name="Groupe 32"><g id="Rectangle_25" data-name="Rectangle 25"><path d="M55,3H87a40,40,0,0,1,40,40h0A40,40,0,0,1,87,83H55A40,40,0,0,1,15,43h0A40,40,0,0,1,55,3Z" transform="translate(-0.16 -3)" style="fill:#fae2e6"/></g><g id="wash" style="isolation:isolate"><g style="isolation:isolate"><path d="M35.77,17.5,30.31,30.64,28.09,37l-2.65-.12L22.63,37l-1.95-6.36-2.62-7.17-2.73,7.17-2,6.36-2.69-.16L8,37,5.7,30.64.16,17.5h8l2.1,15.6,5.89-15.52L18,17.7l1.84-.12L25.4,33.14,27.7,17.5Z" transform="translate(-0.16 -3)" style="fill:#e9232a"/><path d="M57,36.88l-2.3.12.08-4.25a12.22,12.22,0,0,1-4.5,3.65,13.86,13.86,0,0,1-5.87,1.22A9,9,0,0,1,39,36.12a5.06,5.06,0,0,1-2-4.31q0-3.58,3.92-5.16T55.08,25a4.15,4.15,0,0,0-2.48-2,12.55,12.55,0,0,0-4.47-.72,16.54,16.54,0,0,0-4.74.7,18.77,18.77,0,0,0-4.46,2l-1.41-5.27a17.44,17.44,0,0,1,5.08-2A26.58,26.58,0,0,1,48.8,17q5.81,0,8.83,1.84A4.41,4.41,0,0,1,59.87,24l-.78,3.28L61,37Zm-9.47-8.81a21,21,0,0,0-5.11.84c-1,.38-1.56.95-1.56,1.73a1.68,1.68,0,0,0,1,1.58,7.08,7.08,0,0,0,3.1.53,12.56,12.56,0,0,0,5.5-1.33,15,15,0,0,0,4.8-3.59c-1.59,0-3,0-4.31.08Z" transform="translate(-0.16 -3)" style="fill:#e9232a"/><path d="M76.41,37.62a23.58,23.58,0,0,1-6.5-.93,16.89,16.89,0,0,1-5.36-2.5l1.21-5.26a25,25,0,0,0,12,3.23,8.48,8.48,0,0,0,2.93-.37,1.22,1.22,0,0,0,.93-1.15c0-.52-.34-.91-1-1.19A21.14,21.14,0,0,0,76,28.73c-1.87-.15-3.26-.31-4.17-.47a14.83,14.83,0,0,1-2.38-.58,6.37,6.37,0,0,1-3-1.81,4.34,4.34,0,0,1-1-2.87,4.86,4.86,0,0,1,2.86-4.45,16.86,16.86,0,0,1,8-1.56,20.27,20.27,0,0,1,4.44.49,17.53,17.53,0,0,1,4.06,1.46l-1.56,5.23a27.74,27.74,0,0,0-4.74-1.23,29.32,29.32,0,0,0-5-.45,9,9,0,0,0-2.87.35c-.63.24-1,.58-1,1s.32.78,1,1a19.38,19.38,0,0,0,4.37.61c1.9.12,3.33.27,4.29.42a17.14,17.14,0,0,1,2.5.59,6.37,6.37,0,0,1,3,1.87,4.59,4.59,0,0,1,1,3A5.18,5.18,0,0,1,83.29,36,12.67,12.67,0,0,1,76.41,37.62Z" transform="translate(-0.16 -3)" style="fill:#e9232a"/><path d="M93.41,9.86l4-.12-1.37,11A12.86,12.86,0,0,1,100.2,18,12.23,12.23,0,0,1,105,17,8.73,8.73,0,0,1,111,19a4.83,4.83,0,0,1,1.4,5.17l-.82,3.08L113.5,37l-3.87-.12-3.86.12,1.91-9.71a2.65,2.65,0,0,0-1-2.75,5.93,5.93,0,0,0-3.8-1.07,13.4,13.4,0,0,0-3.69.56,16.72,16.72,0,0,0-3.72,1.62l2,11.35-4-.12-4,.12,2-9.71-2-17.55Z" transform="translate(-0.16 -3)" style="fill:#e9232a"/></g></g><g id="wash-2" style="isolation:isolate"><g style="isolation:isolate"><path d="M68.77,47.5,63.31,60.64,61.09,67l-2.65-.12L55.63,67l-2-6.36-2.62-7.17-2.73,7.17-2,6.36-2.69-.16L41,67l-2.3-6.36L33.16,47.5h8l2.1,15.6,5.89-15.52L51,47.7l1.84-.12L58.4,63.14,60.7,47.5Z" transform="translate(-0.16 -3)" style="fill:#e9232a"/><path d="M90,66.88l-2.3.12.08-4.25a12.22,12.22,0,0,1-4.5,3.65,13.86,13.86,0,0,1-5.87,1.22A9,9,0,0,1,72,66.12a5.06,5.06,0,0,1-2-4.31q0-3.59,3.92-5.16T88.08,55a4.18,4.18,0,0,0-2.48-2,12.55,12.55,0,0,0-4.47-.72,16.54,16.54,0,0,0-4.74.7,18.77,18.77,0,0,0-4.46,2l-1.41-5.27a17.49,17.49,0,0,1,5.07-2A26.73,26.73,0,0,1,81.8,47q5.81,0,8.83,1.84A4.41,4.41,0,0,1,92.87,54l-.78,3.28L94,67Zm-9.47-8.81a21,21,0,0,0-5.11.84c-1,.38-1.56,1-1.56,1.73a1.68,1.68,0,0,0,1,1.58,7.08,7.08,0,0,0,3.1.53,12.56,12.56,0,0,0,5.5-1.33,15,15,0,0,0,4.8-3.59c-1.59,0-3,0-4.31.08Z" transform="translate(-0.16 -3)" style="fill:#e9232a"/><path d="M109.41,67.62a23.58,23.58,0,0,1-6.5-.93,16.89,16.89,0,0,1-5.36-2.5l1.21-5.26a25,25,0,0,0,12,3.23,8.48,8.48,0,0,0,2.93-.37,1.22,1.22,0,0,0,.93-1.15c0-.52-.34-.91-1-1.19a21.14,21.14,0,0,0-4.62-.72c-1.87-.15-3.27-.31-4.18-.47a14.69,14.69,0,0,1-2.37-.58,6.37,6.37,0,0,1-3-1.81,4.34,4.34,0,0,1-1-2.87,4.86,4.86,0,0,1,2.86-4.45,16.86,16.86,0,0,1,8-1.56,20.27,20.27,0,0,1,4.44.49,17.53,17.53,0,0,1,4.06,1.46l-1.56,5.23a27.74,27.74,0,0,0-4.74-1.23,29.32,29.32,0,0,0-5-.45,9,9,0,0,0-2.87.35c-.63.24-1,.58-1,1s.32.78,1,1a19.38,19.38,0,0,0,4.37.61c1.9.12,3.33.27,4.29.42a17.14,17.14,0,0,1,2.5.59,6.37,6.37,0,0,1,3,1.87,4.59,4.59,0,0,1,1,3A5.18,5.18,0,0,1,116.29,66,12.67,12.67,0,0,1,109.41,67.62Z" transform="translate(-0.16 -3)" style="fill:#e9232a"/><path d="M126.41,39.86l4-.12-1.37,11A12.86,12.86,0,0,1,133.2,48,12.23,12.23,0,0,1,138,47,8.73,8.73,0,0,1,144,49a4.83,4.83,0,0,1,1.4,5.17l-.82,3.08L146.5,67l-3.87-.12-3.86.12,1.91-9.71a2.65,2.65,0,0,0-1-2.75,5.93,5.93,0,0,0-3.8-1.07,13.4,13.4,0,0,0-3.69.56,16.72,16.72,0,0,0-3.72,1.62l2,11.35-4-.12-4,.12,2-9.71-2-17.55Z" transform="translate(-0.16 -3)" style="fill:#e9232a"/></g></g></g></svg>