<svg id="Calque_1" data-name="Calque 1" xmlns="http://www.w3.org/2000/svg" viewBox="0 0 294.98 241.69"><path d="M119.8,44.41a9.27,9.27,0,0,1,.38,3.73q0,10.19,0,20.37a9.54,9.54,0,0,0,.29,1c0-6.85,0-13,0-19.06,0-5.42,0-5.37,3.09-5.32,5.21.08,10.43.2,15.65.08,1.6,0,2.11.82,2.08,3.49-.08,5.7-.05,11.42,0,17.12,0,2.14-.35,3.24-1.61,3-2.07-.44-3.94.45-5.78,1.94a1.18,1.18,0,0,1-1.66-.24c-.24-.25-.36-.78-.79-.56-2.55,1.28-5.18-1.49-7.76.43a3.06,3.06,0,0,1-4.11-.23l-.09-.63a17.93,17.93,0,0,0-.18-6,.4.4,0,0,0,0-.37,4.84,4.84,0,0,0,0-2.87c0-1,0-1.92,0-2.88a16.17,16.17,0,0,0,0-6.2C119.68,49,119.09,46.58,119.8,44.41Zm11.79,10.06c.38-2.21,0-4.44.06-6.67,0-1.17-.11-1.17-1.1-1.08-.72,2.56-.37,5.19-.12,7.79a1.86,1.86,0,0,0,.93,1.48Z" style="fill:#4c4338"/><path d="M167.59,70.07c-.06.5,0,1.14-.42,1.26-.58.18-.54-.63-.64-1.22s.1-1-.75-1c-1.72,0-3.55,3.74-5.27-.12-.31-.71-1-1-1-2.13,0-1.57-.78-1.16-1.06-.89-1.91,1.9-1.63-.22-1.66-2.29,0-1,.38-2.33-.34-3.2-1.29-.5-2.09,0-1.8,2.59a3.87,3.87,0,0,1-.32,1.74c-1.44,2.38-3,2.49-4.76,1-1.22-1.39-2.27-1.52-3,1.07-1.06,3-2.75,1.58-4.12,1.4s-.69-2.35-.71-3.65c-.07-4.38,0-8.76.11-13.31A1.86,1.86,0,0,0,144,52.56c7.25,0,14.51.11,21.76.06,1.25,0,1.62.55,1.6,2.68,0,4.29.11,8.59.18,12.88C167.55,68.81,167.57,69.44,167.59,70.07Z" style="fill:#4c4338"/><path d="M149.3,47.32c.12,2.48-1,1.8-1.75,1.9-1,.12-.87-1.24-.83-2.21.05-1.31-.2-2.86.71-3.69s.94,1.53,1.68,1.26l.1.21,0,.84Z" style="fill:#4c4338"/><path d="M156.45,45.11c.13,1-.27,2.2.35,3,.08.82-.25,1.53-.57,1-.86-1.36-1.27-.08-1.9.84a23.12,23.12,0,0,1,0-6.34,1.94,1.94,0,0,0,.68-1.29l.66-.06C154.8,44.13,155.77,44.5,156.45,45.11Z" style="fill:#4c4338"/><path d="M66,96.56H61.12l-.34.82A8.15,8.15,0,0,0,60,99.71a1.06,1.06,0,0,0,.39.89,1.67,1.67,0,0,0,1,.3v.44H57.6v-.44a2.06,2.06,0,0,0,1.28-.61,7.25,7.25,0,0,0,1-2c0-.1.19-.47.46-1.11l3.77-9h.37l4.33,10.3.6,1.36a1.8,1.8,0,0,0,.54.72,1.85,1.85,0,0,0,1,.33v.44H65.88v-.44a3.9,3.9,0,0,0,1.27-.14.54.54,0,0,0,.32-.55A5.39,5.39,0,0,0,67,99Zm-.16-.43-2.3-5.53L61.3,96.13Z"/><path d="M84.2,98.09l-.08,3h-8.7v-.35h.31a1.8,1.8,0,0,0,.91-.17.8.8,0,0,0,.32-.52A10.58,10.58,0,0,0,77,98.44v-5A10.22,10.22,0,0,0,77,91.84a.7.7,0,0,0-.3-.49,2.37,2.37,0,0,0-1-.14h-.23v-.34h4.92v.34h-.45a2.48,2.48,0,0,0-1,.13.67.67,0,0,0-.32.46,10,10,0,0,0-.08,1.62v5.36a9.26,9.26,0,0,0,.06,1.39.62.62,0,0,0,.33.43,2.61,2.61,0,0,0,1.15.16h.78a4.36,4.36,0,0,0,1.4-.17,1.91,1.91,0,0,0,.87-.72,5.75,5.75,0,0,0,.75-1.78Z"/><path d="M87.78,91l1.68-.08c1.41-.07,2.35-.11,2.84-.11a7.44,7.44,0,0,1,3.56.7,4.53,4.53,0,0,1,1.9,1.88,6.38,6.38,0,0,1,.28,4.8,4.48,4.48,0,0,1-.93,1.55,4.08,4.08,0,0,1-1.38.94,6,6,0,0,1-1.48.4,19.65,19.65,0,0,1-2,.08H87.73v-.35h.43a1.77,1.77,0,0,0,.91-.17.76.76,0,0,0,.32-.52,10.58,10.58,0,0,0,.07-1.63V93.5a10.3,10.3,0,0,0-.07-1.58.7.7,0,0,0-.3-.49,2.39,2.39,0,0,0-1-.13h-.3Zm3.16.21V98c0,1,0,1.67,0,2a.8.8,0,0,0,.34.61,2.59,2.59,0,0,0,1.2.18,5.58,5.58,0,0,0,2.2-.37,3,3,0,0,0,1.43-1.44,5.71,5.71,0,0,0,.58-2.74,7.51,7.51,0,0,0-.33-2.32,4.29,4.29,0,0,0-1-1.66,3.33,3.33,0,0,0-1.39-.87,7,7,0,0,0-2-.23C91.72,91.12,91.33,91.14,90.94,91.16Z"/><path d="M103.06,95.92a4.92,4.92,0,0,1,1.58-3.81,5.72,5.72,0,0,1,4-1.43,5.79,5.79,0,0,1,4,1.42A4.9,4.9,0,0,1,114.2,96a5.09,5.09,0,0,1-1.53,3.85,6.25,6.25,0,0,1-8,0A5.11,5.11,0,0,1,103.06,95.92Zm1.73,0a5.93,5.93,0,0,0,1,3.71,3.58,3.58,0,0,0,3,1.24,3.35,3.35,0,0,0,2.73-1.24,5.78,5.78,0,0,0,1-3.69,5.86,5.86,0,0,0-1-3.66,3.88,3.88,0,0,0-5.71,0A5.86,5.86,0,0,0,104.79,96Z"/><path d="M135.49,96.19h.41v4.54h-.41a3.59,3.59,0,0,0-.63-1.37,5.56,5.56,0,0,1-4.37,1.93,6.24,6.24,0,0,1-4.59-1.77,6.36,6.36,0,0,1-1.78-4.71,8.17,8.17,0,0,1,.82-3.62,5.58,5.58,0,0,1,2.29-2.52,6.53,6.53,0,0,1,3.24-.82,5.75,5.75,0,0,1,2.63.6,5.22,5.22,0,0,1,1.76,1.32,4.65,4.65,0,0,0,.5-1.68h.42L135.9,93h-.41a5.59,5.59,0,0,0-1.76-3.64,4.77,4.77,0,0,0-3-1A3.8,3.8,0,0,0,127.51,90a8,8,0,0,0-1.2,4.73,6.75,6.75,0,0,0,1.31,4.48,4.1,4.1,0,0,0,3.26,1.55,5,5,0,0,0,2.13-.51,3.76,3.76,0,0,0,1.73-1.71A6.63,6.63,0,0,0,135.49,96.19Z"/><path d="M140,95.92a4.92,4.92,0,0,1,1.58-3.81,5.72,5.72,0,0,1,4-1.43,5.79,5.79,0,0,1,4,1.42,4.9,4.9,0,0,1,1.6,3.87,5.09,5.09,0,0,1-1.53,3.85,6.25,6.25,0,0,1-8.05,0A5.11,5.11,0,0,1,140,95.92Zm1.73,0a5.93,5.93,0,0,0,1,3.71,3.58,3.58,0,0,0,3,1.24,3.35,3.35,0,0,0,2.73-1.24,5.78,5.78,0,0,0,1-3.69,5.86,5.86,0,0,0-1-3.66,3.88,3.88,0,0,0-5.71,0A5.86,5.86,0,0,0,141.77,96Z"/><path d="M164.58,101.34l-7.24-9.6v7.11a4.67,4.67,0,0,0,.09,1.16,1,1,0,0,0,.49.51,2.5,2.5,0,0,0,1.23.24v.35h-3.82v-.35a2.85,2.85,0,0,0,1.11-.27.88.88,0,0,0,.46-.46,5.61,5.61,0,0,0,.07-1.18V93.42a6.81,6.81,0,0,0-.11-1.58.72.72,0,0,0-.34-.51,3,3,0,0,0-1.07-.12v-.34h3l6.07,8V92.75a2.33,2.33,0,0,0-.14-1,1.05,1.05,0,0,0-.57-.43,3.16,3.16,0,0,0-1-.16v-.34h3.72v.34a2.87,2.87,0,0,0-1,.25.94.94,0,0,0-.47.48,2.89,2.89,0,0,0-.1.93v8.47Z"/><path d="M170.49,93.33h-.35l.06-2.46h9.93l.06,2.46h-.33a3.82,3.82,0,0,0-.47-1.46,1.25,1.25,0,0,0-.65-.55,4.58,4.58,0,0,0-1.19-.11h-1.64v7.23A13.55,13.55,0,0,0,176,100a.8.8,0,0,0,.31.56,1.69,1.69,0,0,0,.93.18h.5v.35h-5.1v-.35h.53a1.8,1.8,0,0,0,.91-.17.76.76,0,0,0,.32-.52,10.58,10.58,0,0,0,.07-1.63V91.21h-1.51a6,6,0,0,0-1.33.1,1.17,1.17,0,0,0-.64.57A4.11,4.11,0,0,0,170.49,93.33Z"/><path d="M192.46,97.92h.36l-.22,3.19h-8.48v-.35h.22a1.55,1.55,0,0,0,1-.21.86.86,0,0,0,.28-.51,12.07,12.07,0,0,0,.06-1.6v-5a12.21,12.21,0,0,0-.06-1.54.72.72,0,0,0-.29-.52,2.06,2.06,0,0,0-1-.15v-.34h7.31l.24,2.55h-.35A4,4,0,0,0,191,91.9a1.55,1.55,0,0,0-.84-.57,7.11,7.11,0,0,0-1.55-.12h-1.42v4.3h1.08a2.86,2.86,0,0,0,1.05-.13.63.63,0,0,0,.39-.39,3.19,3.19,0,0,0,.1-1h.35v3.5h-.35a2.83,2.83,0,0,0-.15-1.14.66.66,0,0,0-.42-.38,3.31,3.31,0,0,0-.93-.09h-1.12V98.3a5.43,5.43,0,0,0,.23,2.14c.16.21.58.32,1.26.32h.76a3.56,3.56,0,0,0,1.33-.21,2.41,2.41,0,0,0,1-.85A5.1,5.1,0,0,0,192.46,97.92Z"/><path d="M220.28,101.34,213,91.74v7.11a5.46,5.46,0,0,0,.08,1.16,1,1,0,0,0,.5.51,2.46,2.46,0,0,0,1.22.24v.35H211v-.35a2.91,2.91,0,0,0,1.12-.27.85.85,0,0,0,.45-.46,5.36,5.36,0,0,0,.08-1.18V93.42a7.45,7.45,0,0,0-.11-1.58.73.73,0,0,0-.35-.51,2.88,2.88,0,0,0-1.06-.12v-.34h3l6.06,8V92.75a2.16,2.16,0,0,0-.14-1,1,1,0,0,0-.57-.43,3.09,3.09,0,0,0-1-.16v-.34h3.71v.34a2.81,2.81,0,0,0-1,.25.93.93,0,0,0-.48.48,3.22,3.22,0,0,0-.1.93v8.47Z"/><path d="M226.24,95.92a4.92,4.92,0,0,1,1.58-3.81,5.72,5.72,0,0,1,4-1.43,5.79,5.79,0,0,1,4,1.42,4.9,4.9,0,0,1,1.6,3.87,5.09,5.09,0,0,1-1.53,3.85,6.25,6.25,0,0,1-8,0A5.11,5.11,0,0,1,226.24,95.92ZM228,96a5.93,5.93,0,0,0,1,3.71,3.58,3.58,0,0,0,3,1.24,3.35,3.35,0,0,0,2.73-1.24,5.78,5.78,0,0,0,1-3.69,5.86,5.86,0,0,0-1-3.66,3.88,3.88,0,0,0-5.71,0A5.86,5.86,0,0,0,228,96Z"/><path d="M206.29,102a27.67,27.67,0,0,1-4.7-5,4.89,4.89,0,0,0-.71-.77,1,1,0,0,0-.6-.14h-.41v2.25a12.47,12.47,0,0,0,.06,1.57.81.81,0,0,0,.3.55,1.67,1.67,0,0,0,.93.18h.49V101h-4.87v-.35h.33a1.79,1.79,0,0,0,.91-.16.8.8,0,0,0,.32-.52,12.8,12.8,0,0,0,.06-1.62v-5a12.36,12.36,0,0,0-.06-1.57.7.7,0,0,0-.3-.48,2.37,2.37,0,0,0-1-.14h-.17v-.34l1.45-.08c1,0,1.74-.07,2.31-.07A8.58,8.58,0,0,1,203,91a3.22,3.22,0,0,1,1.47.89,2.12,2.12,0,0,1,.56,1.47,2.31,2.31,0,0,1-.73,1.7,3.64,3.64,0,0,1-2.16.87c.23,0,.71.59.85.73a13.2,13.2,0,0,1,1.18,1.5,11.13,11.13,0,0,0,4.6,4.32,6.45,6.45,0,0,0,3.7.49,3.22,3.22,0,0,1-1,.41A6.43,6.43,0,0,1,206.29,102Zm-6.42-6.22,1.16,0a4.26,4.26,0,0,0,1-.17,1.77,1.77,0,0,0,.72-.39,1.73,1.73,0,0,0,.43-.68,2.82,2.82,0,0,0,.16-1,2.59,2.59,0,0,0-.54-1.72,3,3,0,0,0-2.33-.64l-.64,0Z"/><path d="M47.54,173.58a5.73,5.73,0,0,1,.24,2.24q0,6.1,0,12.21a5.6,5.6,0,0,0,.17.63c0-4.11,0-7.77,0-11.43C48,174,48,174,49.82,174c3.13.05,6.26.12,9.39.05,1,0,1.27.48,1.25,2.09,0,3.42,0,6.85,0,10.27,0,1.29-.22,2-1,1.79a4.07,4.07,0,0,0-3.47,1.16.71.71,0,0,1-1-.15c-.14-.15-.21-.46-.47-.34-1.53.77-3.11-.89-4.66.26a1.83,1.83,0,0,1-2.46-.13l-.06-.38a11,11,0,0,0-.1-3.62.28.28,0,0,0,0-.22,3,3,0,0,0,0-1.72v-1.73a9.7,9.7,0,0,0,0-3.72C47.47,176.31,47.12,174.88,47.54,173.58Zm7.08,6a24.28,24.28,0,0,0,0-4c0-.7-.06-.7-.65-.65a12.43,12.43,0,0,0-.08,4.67,1.14,1.14,0,0,0,.56.89Z" style="fill:#4c4338"/><path d="M76.22,189c0,.3,0,.68-.25.76s-.32-.38-.39-.73.06-.61-.44-.61c-1,0-2.14,2.24-3.17-.07-.18-.43-.6-.61-.6-1.28,0-.94-.47-.7-.64-.53-1.15,1.14-1-.14-1-1.38,0-.61.23-1.4-.2-1.92-.77-.3-1.26,0-1.08,1.56a2.3,2.3,0,0,1-.19,1c-.87,1.42-1.83,1.49-2.86.58-.73-.83-1.36-.91-1.79.64-.64,1.78-1.65.95-2.48.85s-.41-1.42-.42-2.2c0-2.62,0-5.25.07-8a1.1,1.1,0,0,0,1.27.77c4.35,0,8.71.07,13.06,0,.75,0,1,.33,1,1.61,0,2.58.07,5.15.11,7.73Z" style="fill:#4c4338"/><path d="M65.24,175.32c.08,1.49-.59,1.08-1,1.14s-.51-.74-.49-1.33c0-.78-.12-1.71.42-2.21s.57.92,1,.76l.06.12,0,.51Z" style="fill:#4c4338"/><path d="M69.53,174c.08.6-.15,1.31.22,1.82,0,.49-.16.91-.35.61-.51-.82-.76-.05-1.13.51a13.84,13.84,0,0,1,0-3.81,1.17,1.17,0,0,0,.41-.77l.39,0C68.54,173.4,69.13,173.63,69.53,174Z" style="fill:#4c4338"/><path d="M136.17,166.81a5.55,5.55,0,0,1-2.24.23c-4.07,0-8.15,0-12.22,0a6.44,6.44,0,0,0-.63.17h11.43c3.26,0,3.23,0,3.2,1.85-.05,3.13-.12,6.26-.05,9.39,0,1-.49,1.27-2.09,1.25q-5.13-.06-10.28,0c-1.28,0-1.94-.22-1.78-1a4.1,4.1,0,0,0-1.16-3.47.71.71,0,0,1,.15-1c.14-.14.46-.21.33-.47-.77-1.53.89-3.11-.26-4.66a1.83,1.83,0,0,1,.14-2.46l.38-.06a11,11,0,0,0,3.62-.1.28.28,0,0,0,.22,0,2.88,2.88,0,0,0,1.72,0h1.73a9.7,9.7,0,0,0,3.72,0C133.44,166.74,134.87,166.39,136.17,166.81Zm-6,7.08a24.4,24.4,0,0,0,4,0c.7,0,.7-.06.65-.65a12.48,12.48,0,0,0-4.68-.08,1.14,1.14,0,0,0-.89.56Z" style="fill:#4c4338"/><path d="M120.78,195.49c-.3,0-.69,0-.76-.25s.37-.33.73-.39.61.06.61-.44c0-1-2.25-2.14.07-3.17.42-.19.6-.6,1.28-.6.94,0,.69-.47.53-.64-1.14-1.15.14-1,1.37-1,.62,0,1.41.23,1.92-.2.3-.77,0-1.26-1.55-1.08a2.3,2.3,0,0,1-1-.19c-1.43-.87-1.49-1.83-.59-2.86.84-.73.92-1.36-.64-1.8-1.77-.63-.94-1.64-.84-2.47s1.41-.41,2.19-.42c2.63,0,5.26,0,8,.07a1.11,1.11,0,0,0-.77,1.27c0,4.35-.07,8.71,0,13.06,0,.75-.33,1-1.61,1-2.58,0-5.16.07-7.73.11Z" style="fill:#4c4338"/><path d="M134.42,184.51c-1.48.08-1.08-.59-1.13-1-.08-.61.74-.51,1.32-.49.79,0,1.71-.12,2.22.42s-.92.57-.76,1l-.13.06-.5,0Z" style="fill:#4c4338"/><path d="M135.75,188.8c-.61.08-1.32-.15-1.82.22-.49,0-.92-.16-.61-.35.81-.51,0-.76-.51-1.13a13.84,13.84,0,0,1,3.81,0,1.17,1.17,0,0,0,.77.41l0,.39C136.34,187.81,136.11,188.4,135.75,188.8Z" style="fill:#4c4338"/><path d="M246.08,163a7.05,7.05,0,0,1-2.84.29l-15.5,0a8.12,8.12,0,0,0-.8.22c5.22,0,9.86,0,14.51,0,4.13,0,4.09,0,4.05,2.35-.07,4-.15,7.94-.06,11.91,0,1.22-.62,1.61-2.66,1.58q-6.51-.07-13,0c-1.63,0-2.47-.26-2.26-1.22.34-1.58-.34-3-1.48-4.4a.91.91,0,0,1,.19-1.27c.18-.18.59-.27.43-.6-1-1.94,1.12-3.94-.33-5.9a2.33,2.33,0,0,1,.17-3.13l.48-.07a13.84,13.84,0,0,0,4.59-.13.34.34,0,0,0,.28,0,3.76,3.76,0,0,0,2.18,0h2.2a12.24,12.24,0,0,0,4.71,0C242.62,162.91,244.43,162.46,246.08,163Zm-7.65,9a30.65,30.65,0,0,0,5.07,0c.89,0,.9-.07.83-.83a16,16,0,0,0-5.93-.09,1.41,1.41,0,0,0-1.13.7Z" style="fill:#4c4338"/><path d="M226.56,199.37c-.39,0-.87,0-1-.32s.48-.41.93-.49.78.08.77-.56c0-1.32-2.85-2.71.09-4,.54-.24.77-.77,1.62-.77,1.2,0,.89-.6.68-.81-1.45-1.46.17-1.24,1.74-1.27.79,0,1.78.29,2.44-.26.38-1,0-1.59-2-1.37a2.76,2.76,0,0,1-1.32-.24c-1.81-1.1-1.9-2.32-.74-3.62,1-.93,1.15-1.73-.82-2.28-2.25-.81-1.2-2.09-1.07-3.14s1.8-.52,2.79-.54c3.33-.05,6.66,0,10.13.09a1.42,1.42,0,0,0-1,1.62c0,5.52-.09,11,0,16.56,0,1-.42,1.24-2.05,1.22-3.26,0-6.53.09-9.8.14Z" style="fill:#4c4338"/><path d="M243.87,185.45c-1.89.09-1.37-.76-1.45-1.33-.09-.78,1-.66,1.69-.63,1,0,2.17-.15,2.8.54s-1.16.71-.95,1.28l-.16.07-.65,0Z" style="fill:#4c4338"/><path d="M245.55,190.89c-.77.1-1.67-.2-2.31.27-.62.06-1.16-.19-.78-.44,1-.65.06-1-.64-1.44a17.69,17.69,0,0,1,4.83,0,1.54,1.54,0,0,0,1,.52l0,.5C246.3,189.64,246,190.38,245.55,190.89Z" style="fill:#4c4338"/><path d="M224.3,189.78a2.5,2.5,0,0,1-1.27-.25c-1.74-1.13-1.82-2.39-.71-3.74,1-.95,1.11-1.78-.79-2.35-2.17-.83-1.15-2.15-1-3.23a.7.7,0,0,1,.6-.6,4,4,0,0,1,1.15,0l.6,0a6.77,6.77,0,0,0,.78,0,1.7,1.7,0,0,1-.22,0l-.22,0q-.44-.09-.87-.15h-.08c-.26,0-.52,0-.78-.05a2.8,2.8,0,0,1-.57-.08,1.14,1.14,0,0,1-.73-.44,1,1,0,0,1-.1-.72,5.57,5.57,0,0,0-1.42-4.54,1,1,0,0,1,.18-1.31c.18-.18.57-.28.41-.61-.94-2,1.09-4.08-.31-6.1a2.4,2.4,0,0,1-.29-2.47H185V199h34.75a.59.59,0,0,0,.11-.46c0-1.35-2.74-2.79.09-4.13.52-.25.74-.79,1.56-.8,1.16,0,.86-.61.66-.83-1.4-1.51.16-1.28,1.68-1.31.75,0,1.71.3,2.34-.27C226.57,190.19,226.23,189.55,224.3,189.78Z" style="fill:#efe6d8"/><path d="M198.17,179.1a1,1,0,0,1,0,.43c0,.78,0,1.55,0,2.33a.47.47,0,0,0,0,.12V179.8c0-.62,0-.61.35-.61.6,0,1.2,0,1.79,0,.19,0,.25.1.24.4,0,.65,0,1.31,0,2,0,.24,0,.37-.19.34a.79.79,0,0,0-.66.22c-.06,0-.13,0-.19,0s0-.09-.09-.06c-.29.14-.59-.17-.89.05a.35.35,0,0,1-.47,0V182a2,2,0,0,0,0-.69,0,0,0,0,0,0,0,.53.53,0,0,0,0-.33v-.33a2.12,2.12,0,0,0,0-.71A4,4,0,0,1,198.17,179.1Zm1.35,1.16a5,5,0,0,0,0-.77c0-.13,0-.13-.12-.12a2.66,2.66,0,0,0,0,.89.24.24,0,0,0,.11.17Z" style="fill:#4c4338"/><path d="M203.63,182c0,.06,0,.13,0,.14s-.07-.07-.08-.14,0-.11-.08-.11-.41.43-.61,0c0-.08-.11-.11-.11-.24s-.09-.13-.12-.1c-.22.22-.19,0-.19-.26s0-.27,0-.37-.24,0-.21.3a.44.44,0,0,1,0,.2c-.17.27-.35.28-.55.11s-.26-.18-.34.12-.31.18-.47.16-.08-.27-.08-.42c0-.5,0-1,0-1.52a.22.22,0,0,0,.24.15c.83,0,1.66,0,2.49,0,.15,0,.19.07.19.31,0,.49,0,1,0,1.47Z" style="fill:#4c4338"/><path d="M201.54,179.44c0,.28-.11.2-.2.21s-.1-.14-.09-.25,0-.32.08-.42.11.17.19.14v.32Z" style="fill:#4c4338"/><path d="M202.36,179.18c0,.12,0,.26,0,.35s0,.18-.07.12-.14,0-.21.1a2.55,2.55,0,0,1,0-.73.27.27,0,0,0,.08-.15h.08C202.17,179.07,202.28,179.12,202.36,179.18Z" style="fill:#4c4338"/><path d="M195.85,191.23h0s0,0,0,0a.41.41,0,0,0,0-.08h-.12s0,.05,0,.07,0,0,0,.05h-.13s0,0,.06-.06l.12-.3h0c0,.09.07.2.11.3s0,.05.06.06h-.14Zm-.06-.29a1.21,1.21,0,0,1,0,.14h.1Z" style="fill:#93897d"/><path d="M196.29,191.14a.32.32,0,0,1,0,.09H196c.05,0,.05,0,.05-.06v-.22c0-.05,0-.05-.05-.06v0h.16v0s0,0,0,.06v.22s0,.05,0,.05h.05l.05,0,0-.06Z" style="fill:#93897d"/><path d="M196.47,190.86a.22.22,0,0,1,.16,0,.17.17,0,0,1,.05.12.19.19,0,0,1-.07.16.25.25,0,0,1-.16,0h-.14c.05,0,.05,0,.05-.06v-.22c0-.05,0-.05-.05-.06v0Zm-.05.3s0,.05.05.05.15-.07.15-.17a.15.15,0,0,0-.06-.13.13.13,0,0,0-.09,0h-.05v.27Z" style="fill:#93897d"/><path d="M196.92,190.86a.18.18,0,0,1,.19.18.19.19,0,0,1-.19.2.19.19,0,0,1,0-.38Zm0,0c-.06,0-.11.05-.11.16s0,.18.13.18.12-.05.12-.16S197,190.88,196.91,190.88Z" style="fill:#93897d"/><path d="M197.6,191.14a.24.24,0,0,1,0,.09h-.1a.19.19,0,0,1-.21-.19.2.2,0,0,1,.22-.19h.11a.28.28,0,0,0,0,.09h0a.09.09,0,0,0-.06-.07h-.05a.14.14,0,0,0-.14.16c0,.11,0,.18.14.18s.09,0,.12-.09Z" style="fill:#93897d"/><path d="M197.84,190.86a.17.17,0,0,1,.18.18.19.19,0,0,1-.19.2.18.18,0,0,1-.18-.19A.18.18,0,0,1,197.84,190.86Zm0,0c-.07,0-.12.05-.12.16s0,.18.13.18.12-.05.12-.16S197.9,190.88,197.83,190.88Z" style="fill:#93897d"/><path d="M198.45,190.88s0,0,0,0v.32h0l-.24-.3v.23s0,0,.06.05h-.14s.05,0,.05,0v-.24s0,0,0,0a.06.06,0,0,0,0,0v0h.09l.24.28V191a.2.2,0,0,0,0-.09s0,0-.06,0v0h.14Z" style="fill:#93897d"/><path d="M198.79,191s0,0,0,0,0,0-.05,0h-.05v.27c0,.05,0,.05.06.06h-.17c.05,0,.06,0,.06-.06v-.27h-.05s0,0,0,0,0,0,0,.05h0s0-.08,0-.11h0s0,0,0,0h.27a.34.34,0,0,0,0,.1Z" style="fill:#93897d"/><path d="M199.13,191.14a.24.24,0,0,1,0,.09h-.28s.06,0,.06-.06v-.22c0-.05,0-.05,0-.06v0h.26V191h0l0,0s0,0-.06,0h0s0,0,0,0V191H199s.05,0,.05-.05h0v.12h0s0,0-.05,0h-.06v.11s0,.05,0,.05H199s0,0,.06,0l0-.05Z" style="fill:#93897d"/><path d="M199.5,191.24h0a.11.11,0,0,1-.09-.05.53.53,0,0,1-.06-.1.06.06,0,0,0-.05,0h0v.09c0,.05,0,.05.05.06h-.15c.05,0,.05,0,.05-.06v-.22c0-.05,0-.05-.05-.06v0h.15l.09,0a.1.1,0,0,1,0,.08.09.09,0,0,1-.07.09l0,.09,0,.05,0,0Zm-.21-.19h.06a.09.09,0,0,0,0-.07.07.07,0,0,0-.08-.08h0v.16Z" style="fill:#93897d"/><path d="M199.9,190.88s-.05,0-.05,0v.32h0l-.24-.3v.14s0,.08,0,.09,0,0,0,.05h-.14s.05,0,.05,0a.25.25,0,0,0,0-.1v-.14s0,0,0,0l-.05,0v0h.09l.23.28v-.22s0,0-.06,0v0h.14Z" style="fill:#93897d"/><path d="M200.12,190.86a.17.17,0,0,1,.18.18.19.19,0,1,1-.18-.18Zm0,0c-.06,0-.12.05-.12.16a.16.16,0,0,0,.14.18c.06,0,.11-.05.11-.16S200.18,190.88,200.11,190.88Z" style="fill:#93897d"/><path d="M200.46,191.23h0s0,0,0-.06v-.22c0-.05,0-.05,0-.06v0h.15v0s-.05,0-.05.06v.22c0,.05,0,.05.05.06h-.15Z" style="fill:#93897d"/><path d="M200.85,191a.08.08,0,0,0-.08-.07.06.06,0,0,0-.06.06s0,.05.07.08.1.06.1.11a.12.12,0,0,1-.13.11l-.09,0s0-.06,0-.09h0s0,.09.09.09a.07.07,0,0,0,.07-.06s0-.06-.08-.09-.09-.06-.09-.11,0-.1.12-.1h.08a.28.28,0,0,0,0,.08Z" style="fill:#93897d"/><path d="M201.22,191.23h0s0,0,0,0a.16.16,0,0,0,0-.08h-.12a.19.19,0,0,1,0,.07s0,0,0,.05H201s0,0,.06-.06l.12-.3h0a2.65,2.65,0,0,1,.11.3c0,.05,0,.05.07.06h-.15Zm-.05-.29-.06.14h.11Z" style="fill:#93897d"/><path d="M202,190.88s0,0-.06.06-.06.19-.1.3h0l-.09-.28c0,.1-.07.19-.1.28h0c0-.1-.06-.2-.09-.3s0-.05,0-.06v0h.14v0s0,0,0,0l.06.22c0-.08.06-.18.09-.27h0c0,.09.07.18.1.28l.06-.22s0,0,0-.05v0H202Z" style="fill:#93897d"/><path d="M202,191.23h0c.05,0,.05,0,.05-.06v-.22c0-.05,0-.05-.05-.06v0h.16v0s0,0,0,.06v.22c0,.05,0,.05,0,.06H202Z" style="fill:#93897d"/><path d="M202.59,190.88s-.05,0-.05,0v.32h0l-.24-.3v.14a.55.55,0,0,0,0,.09s0,0,.05.05h-.13a.07.07,0,0,0,.05,0v-.24s0,0,0,0l-.05,0v0h.09l.23.28v-.22s0,0-.06,0v0h.14Z" style="fill:#93897d"/><path d="M202.92,191.14a.94.94,0,0,1,0,.09h-.27s0,0,0-.06v-.22c0-.05,0-.05,0-.06v0h.26a.31.31,0,0,0,0,.09h0s0,0,0,0,0,0-.06,0h0s0,0,0,0V191h.06s0,0,.05-.05h0v.12h0s0,0-.05,0h-.06v.11s0,.05,0,.05h.06a.06.06,0,0,0,.05,0l0-.05Z" style="fill:#93897d"/><path d="M203.37,191.23h0s0,0,0-.07v-.23c0,.1-.12.25-.14.31h0c0-.06-.08-.2-.12-.3,0,.19,0,.23,0,.24s0,0,.05.05h-.13a.06.06,0,0,0,0-.05s0,0,0-.24c0,0,0,0-.06-.05v0h.11l.12.28.13-.28h.1v0c-.05,0-.05,0-.05.05v.22c0,.06,0,.06.05.07h-.15Z" style="fill:#93897d"/><path d="M203.76,191.23h0s0,0,0,0a.16.16,0,0,0,0-.08h-.12a.19.19,0,0,1,0,.07s0,0,0,.05h-.13s.05,0,.06-.06l.12-.3h0a2.65,2.65,0,0,1,.11.3c0,.05,0,.05.07.06h-.15Zm0-.29-.06.14h.11Z" style="fill:#93897d"/><path d="M204.07,190.86a.26.26,0,0,1,.17,0,.17.17,0,0,1,0,.12.22.22,0,0,1-.07.16.31.31,0,0,1-.17,0h-.14c.05,0,.05,0,.05-.06v-.22c0-.05,0-.05-.05-.06v0Zm0,.3s0,.05.06.05a.15.15,0,0,0,.15-.17.15.15,0,0,0-.06-.13.16.16,0,0,0-.1,0h0s0,0,0,0Z" style="fill:#93897d"/><path d="M204.62,191.14a.24.24,0,0,1,0,.09h-.28c.05,0,.06,0,.06-.06v-.22c0-.05,0-.05,0-.06v0h.26V191h0l0,0s0,0-.06,0h-.05s0,0,0,0V191h.06s0,0,0-.05h0v.12h0s0,0,0,0h-.06v.11s0,.05,0,.05h.05s0,0,.06,0l0-.05Z" style="fill:#93897d"/><path d="M204.77,191.23h0s0,0,0-.06v-.22c0-.05,0-.05,0-.06v0h.15v0s0,0,0,.06v.22c0,.05,0,.05,0,.06h-.15Z" style="fill:#93897d"/><path d="M205.35,190.88s0,0,0,0v.32h0l-.24-.3v.23s0,0,.06.05H205s0,0,0,0v-.24s0,0,0,0a.06.06,0,0,0-.05,0v0H205l.24.28V191a.78.78,0,0,0,0-.09s0,0-.06,0v0h.14Z" style="fill:#93897d"/><path d="M205.5,191.23h0s.05,0,.05-.06v-.22c0-.05,0-.05-.05-.06v0h.15v0s-.05,0-.05.06v.22c0,.05,0,.05.05.06h-.15Z" style="fill:#93897d"/><path d="M206,191l0,0s0,0,0,0h-.06v.27c0,.05,0,.05.06.06h-.17c.05,0,.06,0,.06-.06v-.27h0s0,0-.05,0,0,0,0,.05h0a.45.45,0,0,0,0-.11h0s0,0,0,0H206s0,.07,0,.1Z" style="fill:#93897d"/><path d="M206.2,191.23h0s0,0,0,0l0-.08h-.12a.19.19,0,0,0,0,.07s0,0,0,.05H206s0,0,.06-.06l.12-.3h0l.11.3c0,.05,0,.05.06.06h-.14Zm-.06-.29a1.21,1.21,0,0,1,0,.14h.1Z" style="fill:#93897d"/><path d="M206.64,191.14s0,.07,0,.09h-.26c.05,0,.05,0,.05-.06v-.22c0-.05,0-.05-.05-.06v0h.16v0s0,0,0,.06v.22s0,.05,0,.05h0a.11.11,0,0,0,.06,0l0-.06Z" style="fill:#93897d"/><path d="M206.94,190.88s-.05,0-.07.05l-.07.13a0,0,0,0,0,0,0v.07c0,.05,0,.05.06.06h-.17s.06,0,.06-.06v-.1l-.07-.13s0,0-.07-.05v0h.14v0s0,0,0,0,0,.1.07.14l.07-.13s0,0,0,0v0h.13Z" style="fill:#93897d"/><path d="M206.93,191.24s0,0,0,0,0,0,0,0a0,0,0,0,1,0,.08Z" style="fill:#93897d"/><path d="M192.91,192.05v0s0,0,0,0a.41.41,0,0,0,0-.08h-.12a.25.25,0,0,1,0,.07s0,0,0,0v0h-.13v0s0,0,.06-.06l.12-.29h0l.11.3c0,.05,0,.06.06.06v0Zm0-.3-.06.14h.11Z" style="fill:#93897d"/><path d="M193.35,192a.38.38,0,0,1,0,.1h-.26v0c.05,0,.05,0,.05-.05v-.23s0-.05-.05-.05v0h.16v0c-.05,0-.05,0-.05.05V192s0,0,0,0h.05s0,0,.05,0l0-.06Z" style="fill:#93897d"/><path d="M193.53,191.68a.26.26,0,0,1,.17,0,.21.21,0,0,1,0,.12.16.16,0,0,1-.07.15.25.25,0,0,1-.16.05h-.14v0s0,0,0-.05v-.23c0-.05,0-.05,0-.05v0Zm-.05.29s0,.06.06.06.14-.07.14-.17a.14.14,0,0,0-.06-.13.14.14,0,0,0-.09,0h-.05V192Z" style="fill:#93897d"/><path d="M194,191.67a.2.2,0,1,1-.2.2A.19.19,0,0,1,194,191.67Zm0,0c-.06,0-.11.06-.11.16s0,.18.13.18.12-.05.12-.15S194.05,191.69,194,191.69Z" style="fill:#93897d"/><path d="M194.67,192l0,.08-.1,0a.19.19,0,0,1-.21-.19.2.2,0,0,1,.22-.2l.11,0a.22.22,0,0,0,0,.08h0a.09.09,0,0,0-.06-.07h-.05c-.09,0-.14.06-.14.16s.05.17.14.17a.12.12,0,0,0,.12-.08Z" style="fill:#93897d"/><path d="M194.9,191.67a.18.18,0,0,1,.18.19.19.19,0,1,1-.37,0A.19.19,0,0,1,194.9,191.67Zm0,0c-.06,0-.12.06-.12.16s0,.18.13.18.12-.05.12-.15S195,191.69,194.89,191.69Z" style="fill:#93897d"/><path d="M195.51,191.7a0,0,0,0,0,0,0v.32h0l-.24-.29V192s0,0,.06,0v0h-.14v0s0,0,0,0v-.23s0,0,0,0,0,0,0,0v0h.09l.24.28v-.13a.25.25,0,0,0,0-.1s0,0-.05,0v0h.13Z" style="fill:#93897d"/><path d="M195.85,191.77s0,0,0-.05,0,0-.05,0h-.05V192s0,.05.06.05v0h-.17v0s.06,0,.06-.05v-.28h-.05a.06.06,0,0,0,0,0l0,.05h0s0-.07,0-.1h.31a.38.38,0,0,0,0,.1Z" style="fill:#93897d"/><path d="M196.2,192a.94.94,0,0,0,0,.09h-.28v0c.06,0,.06,0,.06-.05v-.23c0-.05,0-.05,0-.05v0h.26v.09h0s0,0,0,0,0,0-.06,0h0s0,0,0,0v.13h.06c.05,0,.05,0,.06,0h0v.12h0s0,0-.06,0H196V192s0,0,0,.05h.05s0,0,.06,0l0-.06Z" style="fill:#93897d"/><path d="M196.56,192.05h0s-.07,0-.09-.05l-.06-.09s0,0,0,0h0V192s0,.05.06.05v0h-.16v0c.05,0,.05,0,.05-.05v-.23s0-.05-.05-.05v0h.15l.09,0a.1.1,0,0,1,0,.08.11.11,0,0,1-.07.09.35.35,0,0,0,0,.08l0,.06,0,0Zm-.21-.18.06,0a.08.08,0,0,0,0-.07.07.07,0,0,0-.08-.08s0,0,0,0v.16Z" style="fill:#93897d"/><path d="M197,191.7s-.05,0-.05,0v.32h0l-.24-.29v.14a.78.78,0,0,0,0,.09s0,0,0,0v0h-.14v0s.05,0,.06,0v-.23s0,0,0,0,0,0-.05,0v0h.09l.23.28v-.23s0,0-.06,0v0H197Z" style="fill:#93897d"/><path d="M197.18,191.67a.18.18,0,0,1,.18.19.18.18,0,0,1-.18.2.19.19,0,0,1-.19-.19A.19.19,0,0,1,197.18,191.67Zm0,0c-.06,0-.12.06-.12.16s.06.18.14.18.11-.05.11-.15S197.24,191.69,197.17,191.69Z" style="fill:#93897d"/><path d="M197.52,192.05v0s0,0,0-.05v-.23s0-.05,0-.05v0h.15v0s0,0,0,.05V192s0,.05,0,.05v0Z" style="fill:#93897d"/><path d="M197.91,191.77s0-.08-.08-.08a.06.06,0,0,0-.06.06s0,.06.07.09.1.06.1.11a.12.12,0,0,1-.13.11l-.09,0s0-.06,0-.09h0s0,.09.09.09a.07.07,0,0,0,.07-.07s0-.06-.08-.08-.09-.06-.09-.12a.11.11,0,0,1,.12-.1h.08a.25.25,0,0,0,0,.08Z" style="fill:#93897d"/><path d="M198.28,192.05v0s0,0,0,0a.16.16,0,0,0,0-.08h-.11l0,.07s0,0,0,0v0h-.13v0s0,0,.07-.06l.11-.29h0l.11.3c0,.05,0,.06.07.06v0Zm-.05-.3-.06.14h.11Z" style="fill:#93897d"/><path d="M198.84,191.77a.08.08,0,0,0,0-.05s0,0,0,0h-.06V192s0,.05.06.05v0h-.17v0c.06,0,.06,0,.06-.05v-.28h0a.06.06,0,0,0-.05,0l0,.05h0a.34.34,0,0,0,0-.1h0s0,0,0,0h.26s0,.07,0,.1Z" style="fill:#93897d"/><path d="M199.05,192.05v0s0,0,0,0l0-.08h-.12a.64.64,0,0,0,0,.07s0,0,0,0v0h-.13v0s0,0,.06-.06l.12-.29h0a2.65,2.65,0,0,0,.11.3c0,.05,0,.06.06.06v0Zm-.06-.3a.58.58,0,0,1-.05.14h.1Z" style="fill:#93897d"/><path d="M199.49,192a.38.38,0,0,1,0,.1h-.26v0c.05,0,.05,0,.05-.05v-.23s0-.05-.05-.05v0h.16v0c-.05,0-.05,0-.05.05V192s0,0,0,0h0a.11.11,0,0,0,.06,0l0-.06Z" style="fill:#93897d"/><path d="M199.81,192a.94.94,0,0,0,0,.09h-.28v0c.06,0,.06,0,.06-.05v-.23c0-.05,0-.05-.05-.05v0h.26a.34.34,0,0,0,0,.09h0l0,0s0,0-.06,0h-.05s0,0,0,0v.13h.06s0,0,0,0h0v.12h0s0,0,0,0h-.06V192s0,0,0,.05h.06a.06.06,0,0,0,0,0l0-.06Z" style="fill:#93897d"/><path d="M200.14,191.67a.18.18,0,0,1,.18.19.18.18,0,0,1-.18.2.19.19,0,0,1-.19-.19A.19.19,0,0,1,200.14,191.67Zm0,0c-.06,0-.12.06-.12.16s.06.18.14.18.11-.05.11-.15S200.2,191.69,200.13,191.69Z" style="fill:#93897d"/><path d="M200.62,191.77s0,0,0,0,0,0,0,0h-.06s0,0,0,0v.13h.07s0,0,.05,0h0v.11h0s0,0-.05,0h-.07V192c0,.05,0,.06.06.06v0h-.16v0s0,0,0-.06v-.22c0-.05,0-.05,0-.05v0h.26v.09Z" style="fill:#93897d"/><path d="M201.15,191.89s0,0,0,.05v.1l-.13,0a.19.19,0,0,1-.21-.2.2.2,0,0,1,.22-.19l.11,0s0,.05,0,.09h0a.1.1,0,0,0-.06-.08H201c-.08,0-.13.06-.13.17s0,.17.15.17h0a.05.05,0,0,0,0,0v-.05s0,0-.06-.05h.15Z" style="fill:#93897d"/><path d="M201.52,192.05h0c-.05,0-.07,0-.09-.05l-.06-.09s0,0,0,0h0V192s0,.05.05.05v0h-.16v0s0,0,0-.05v-.23s0-.05,0-.05v0h.15l.09,0a.08.08,0,0,1,0,.08.11.11,0,0,1-.07.09.35.35,0,0,0,.05.08l0,.06,0,0Zm-.21-.18.06,0a.08.08,0,0,0,0-.07.07.07,0,0,0-.08-.08h0v.16Z" style="fill:#93897d"/><path d="M201.83,192a.94.94,0,0,0,0,.09h-.27v0c.05,0,.05,0,.05-.05v-.23c0-.05,0-.05-.05-.05v0h.26a.34.34,0,0,0,0,.09h0s0,0,0,0a0,0,0,0,0,0,0h-.05s0,0,0,0v.13h.06s0,0,.05,0h0v.12h0s0,0-.05,0h-.06V192s0,0,0,.05h.06a.06.06,0,0,0,.05,0l0-.06Z" style="fill:#93897d"/><path d="M202.05,192.05v0s0,0,0,0l0-.08h-.12a.14.14,0,0,0,0,.07s0,0,0,0v0h-.13v0s0,0,.06-.06l.12-.29h0a2.65,2.65,0,0,0,.11.3c0,.05,0,.06.06.06v0Zm-.06-.3a1.21,1.21,0,0,0-.05.14h.1Z" style="fill:#93897d"/><path d="M202.45,191.77a.08.08,0,0,0,0-.05s0,0,0,0h-.06V192s0,.05.06.05v0h-.17v0c.06,0,.06,0,.06-.05v-.28h-.05a.06.06,0,0,0,0,0s0,0,0,.05h0v-.1h.32v.1Z" style="fill:#93897d"/><path d="M202.76,191.68a.13.13,0,0,1,.1,0,.09.09,0,0,1,0,.08.12.12,0,0,1-.13.11h-.05V192s0,.05.06.05v0h-.16v0s0,0,0-.05v-.23c0-.05,0-.05,0-.05v0Zm0,.19h0s.08,0,.08-.09a.08.08,0,0,0-.08-.09s0,0,0,0,0,0,0,0Z" style="fill:#93897d"/><path d="M203.09,192.05v0s0,0,0,0l0-.08H203l0,.07s0,0,.05,0v0h-.14v0s0,0,.07-.06l.12-.29h0a2.65,2.65,0,0,0,.11.3c0,.05,0,.06.06.06v0Zm-.05-.3a1.21,1.21,0,0,0,0,.14h.1Z" style="fill:#93897d"/><path d="M203.46,191.77s0-.08-.08-.08a.05.05,0,0,0-.06.06s0,.06.07.09.1.06.1.11a.12.12,0,0,1-.13.11l-.09,0s0-.06,0-.09h0s0,.09.09.09a.07.07,0,0,0,.07-.07s0-.06-.08-.08-.09-.06-.09-.12a.11.11,0,0,1,.12-.1h.07a.19.19,0,0,1,0,.08Z" style="fill:#93897d"/><path d="M203.73,191.77s0-.08-.08-.08a.06.06,0,0,0-.06.06s0,.06.07.09.1.06.1.11a.12.12,0,0,1-.13.11l-.09,0s0-.06,0-.09h0s0,.09.09.09a.07.07,0,0,0,.07-.07s0-.06-.08-.08-.09-.06-.09-.12a.11.11,0,0,1,.12-.1h.08a.25.25,0,0,0,0,.08Z" style="fill:#93897d"/><path d="M203.79,192.05v0c.05,0,.05,0,.05-.05v-.23s0-.05-.05-.05v0H204v0s0,0,0,.05V192s0,.05,0,.05v0Z" style="fill:#93897d"/><path d="M204.18,191.67a.18.18,0,0,1,.18.19.18.18,0,0,1-.18.2.19.19,0,0,1-.19-.19A.19.19,0,0,1,204.18,191.67Zm0,0c-.06,0-.12.06-.12.16s.06.18.14.18.11-.05.11-.15S204.24,191.69,204.17,191.69Z" style="fill:#93897d"/><path d="M204.8,191.7s-.05,0-.05,0v.32h0l-.24-.29V192s0,0,.06,0v0h-.14v0s0,0,0,0a.2.2,0,0,0,0-.09v-.14s0,0,0,0,0,0-.05,0v0h.09l.24.28v-.23s0,0-.06,0v0h.14Z" style="fill:#93897d"/><path d="M205.19,191.77s0,0,0,0a0,0,0,0,0,0,0h-.06l0,0v.13h.07s0,0,0,0h0v.11h0s0,0,0,0H205V192c0,.05,0,.06.06.06v0h-.16v0s.05,0,.05-.06v-.22c0-.05,0-.05-.05-.05v0h.26a.31.31,0,0,0,0,.09Z" style="fill:#93897d"/><path d="M205.44,191.67a.18.18,0,0,1,.18.19.19.19,0,1,1-.37,0A.19.19,0,0,1,205.44,191.67Zm0,0c-.07,0-.12.06-.12.16s.05.18.13.18.12-.05.12-.15S205.5,191.69,205.43,191.69Z" style="fill:#93897d"/><path d="M206,192.05h0s-.07,0-.09-.05l-.06-.09s0,0,0,0h0V192s0,.05,0,.05v0h-.16v0c.05,0,.05,0,.05-.05v-.23s0-.05-.05-.05v0h.15l.09,0a.08.08,0,0,1,0,.08.11.11,0,0,1-.07.09.35.35,0,0,0,0,.08l0,.06,0,0Zm-.21-.18.06,0a.08.08,0,0,0,0-.07.07.07,0,0,0-.08-.08h0v.16Z" style="fill:#93897d"/><path d="M206.63,191.7s0,0-.07.06-.06.19-.09.29h0l-.1-.27-.09.27h0l-.09-.3s0-.05-.06-.05v0h.14v0s0,0,0,0a1.87,1.87,0,0,0,.07.22l.09-.27h0l.09.27a1.36,1.36,0,0,0,.07-.22s0,0,0,0v0h.13Z" style="fill:#93897d"/><path d="M206.64,192.05v0s.05,0,.05-.05v-.23s0-.05-.05-.05v0h.15v0s0,0,0,.05V192s0,.05,0,.05v0Z" style="fill:#93897d"/><path d="M207.22,191.7a0,0,0,0,0-.05,0v.32h0l-.24-.29V192s0,0,.06,0v0h-.14v0s0,0,0,0v-.23s0,0,0,0,0,0-.05,0v0h.09l.24.28v-.13a.25.25,0,0,0,0-.1s0,0-.06,0v0h.14Z" style="fill:#93897d"/><path d="M207.55,192s0,.07,0,.09h-.28v0c.05,0,.06,0,.06-.05v-.23c0-.05,0-.05-.05-.05v0h.26v.09h0a.05.05,0,0,0,0,0,0,0,0,0,0,0,0h-.05s0,0,0,0v.13h.06s0,0,.05,0h0v.12h0s0,0-.05,0h-.06V192s0,0,0,.05h0a.06.06,0,0,0,.05,0s0,0,0-.06Z" style="fill:#93897d"/><path d="M207.89,192.05v0s.05,0,.05-.07v-.22c-.05.1-.12.25-.14.31h0l-.12-.31c0,.2,0,.24,0,.25s0,0,0,0v0h-.13v0s0,0,.05,0,0-.05,0-.25c0,0,0,0-.06,0v0h.11l.12.28.13-.28h.1v0s0,0,0,.05V192c0,.06,0,.07,0,.07v0Z" style="fill:#93897d"/><path d="M208.28,192.05v0s0,0,0,0a.41.41,0,0,0,0-.08h-.12a.25.25,0,0,1,0,.07s0,0,0,0v0h-.13v0s0,0,.06-.06l.12-.29h0l.11.3c0,.05,0,.06.06.06v0Zm-.05-.3-.06.14h.11Z" style="fill:#93897d"/><path d="M208.43,191.68h.16v0c-.05,0-.05,0-.05.06v.09l0,0,.09-.1s0,0,0,0h0v0h.14v0a.13.13,0,0,0-.1,0l-.09.1.13.15s0,0,.07,0v0h-.1a1.83,1.83,0,0,0-.13-.16s0,0,0,0v.1c0,.05,0,.06.05.06v0h-.16v0s0,0,0-.06v-.21s0-.06,0-.06Z" style="fill:#93897d"/><path d="M208.81,192.05v0c.05,0,.05,0,.05-.05v-.23s0-.05-.05-.05v0H209v0c-.05,0-.05,0-.05.05V192s0,.05.05.05v0Z" style="fill:#93897d"/><path d="M209.4,191.7s-.05,0-.05,0v.32h0l-.25-.29v.14a.78.78,0,0,0,0,.09s0,0,0,0v0H209v0s0,0,.05,0v-.23s0,0,0,0,0,0-.05,0v0h.09l.23.28v-.23s0,0-.06,0v0h.14Z" style="fill:#93897d"/><path d="M209.8,191.89s0,0,0,.05v0a.13.13,0,0,0,0,.06l-.13,0a.19.19,0,0,1-.21-.2.19.19,0,0,1,.21-.19.29.29,0,0,1,.12,0,.34.34,0,0,0,0,.09h0a.1.1,0,0,0-.07-.08h-.05c-.08,0-.14.06-.14.17a.15.15,0,0,0,.15.17h.05a.05.05,0,0,0,0,0v-.05s0,0-.06-.05h.15Z" style="fill:#93897d"/><path d="M198.25,192.46a.93.93,0,0,1,0,.14h0a.39.39,0,0,0,0-.13Zm.08,0s0,.11,0,.14h0s0-.13,0-.13Z" style="fill:#93897d"/><path d="M198.37,192.86h0s0,0,0-.06v-.22s0,0,0-.06h.15s-.05,0-.05.06v.22c0,.05,0,.05.05.06h-.15Z" style="fill:#93897d"/><path d="M199,192.51s0,0,0,0v.32h0l-.24-.29v.23s0,0,.06,0h-.14s.05,0,.05,0v-.24a.08.08,0,0,0,0,0l0,0h.09l.24.28v-.14a.2.2,0,0,0,0-.09s0,0-.06,0H199Z" style="fill:#93897d"/><path d="M199.41,192.86h0s.05,0,0-.07v-.23c-.05.1-.12.26-.14.31h0l-.12-.3c0,.19,0,.23,0,.25s0,0,.05,0h-.13s0,0,0,0a2.43,2.43,0,0,1,0-.25s0,0-.06-.05h.11l.12.28.13-.28h.1c-.05,0-.06,0-.05.06v.21c0,.06,0,.06.05.07h-.15Z" style="fill:#93897d"/><path d="M199.89,192.77a.24.24,0,0,1,0,.09h-.28s.06,0,.06-.06v-.22s0,0-.05-.06h.26v.08h0a.43.43,0,0,0,0-.05s0,0-.06,0h-.05s0,0,0,0v.12h.06s.05,0,.05,0h0v.11h0s0,0-.05,0h-.06v.11s0,0,0,0h0s0,0,.05,0a.1.1,0,0,0,0,0Z" style="fill:#93897d"/><path d="M200.08,192.5c.08,0,.13,0,.16.05a.14.14,0,0,1,0,.12.2.2,0,0,1-.07.15.29.29,0,0,1-.17,0h-.13c.05,0,.05,0,.05-.06v-.22s0,0-.05-.06h.16Zm-.06.29s0,.05.06.05a.14.14,0,0,0,.15-.16.17.17,0,0,0-.06-.14.16.16,0,0,0-.1,0h0a0,0,0,0,0,0,0Z" style="fill:#93897d"/><path d="M200.33,192.86h0s0,0,0-.06v-.22s0,0,0-.06h.16c-.05,0-.05,0-.05.06v.22c0,.05,0,.05.05.06h-.16Z" style="fill:#93897d"/><path d="M200.72,192.49a.18.18,0,0,1,.18.19.18.18,0,0,1-.19.19.18.18,0,0,1-.18-.19A.18.18,0,0,1,200.72,192.49Zm0,0c-.06,0-.12.05-.12.16s0,.18.13.18.12,0,.12-.16S200.78,192.51,200.71,192.51Z" style="fill:#93897d"/><path d="M201.26,192.58a.09.09,0,0,0-.08-.07.06.06,0,0,0-.06.06s0,.06.07.08.1.06.1.12,0,.1-.13.1l-.09,0s0,0,0-.08h0s0,.09.09.09a.07.07,0,0,0,.07-.06s0-.06-.08-.09-.09-.06-.09-.11a.11.11,0,0,1,.12-.1h.08a.28.28,0,0,0,0,.08Z" style="fill:#93897d"/><path d="M201.62,192.59a.08.08,0,0,0,0-.05s0,0,0,0h-.06v.27c0,.05,0,.05.06.06h-.17c.06,0,.06,0,.06-.06v-.27h0s0,0-.05,0,0,0,0,.05h0a.45.45,0,0,0,0-.11h0s0,0,0,0h.22s0,0,0,0h0s0,.07,0,.11Z" style="fill:#93897d"/><path d="M201.83,192.86h0s0,0,0,0a.94.94,0,0,1,0-.09h-.12a.64.64,0,0,1,0,.07s0,0,0,0h-.13s0,0,.06-.06l.12-.3h0c0,.1.07.2.11.3s0,.05.06.06h-.14Zm-.06-.29a.58.58,0,0,1-.05.14h.1Z" style="fill:#93897d"/><path d="M202.24,192.59a.17.17,0,0,1,0-.05s0,0-.05,0h0v.27c0,.05,0,.05.06.06H202c.05,0,.05,0,.05-.06v-.27h0s0,0-.05,0a.08.08,0,0,0,0,.05h0s0-.08,0-.11h0s0,0,0,0h.23l0,0h0v.11Z" style="fill:#93897d"/><path d="M202.75,192.51s-.05,0-.07.07-.09.21-.12.29h0l-.12-.3s0,0-.06-.06h.15s0,0,0,0a2,2,0,0,0,.09.24c0-.08.06-.17.09-.23s0,0,0-.05h.13Z" style="fill:#93897d"/><path d="M202.76,192.86h0s.05,0,.05-.06v-.22s0,0-.05-.06h.15s0,0,0,.06v.22c0,.05,0,.05,0,.06h-.15Z" style="fill:#93897d"/><path d="M203.29,192.87h0a.11.11,0,0,1-.09-.05l-.06-.09s0,0,0,0h0v.09c0,.05,0,.05.05.06H203s0,0,0-.06v-.22s0,0,0-.06h.14s.07,0,.09,0a.07.07,0,0,1,0,.07.11.11,0,0,1-.07.1l.05.08,0,.06,0,0Zm-.21-.18a.08.08,0,0,0,.06,0s0,0,0-.07,0-.08-.08-.08h0s0,0,0,0v.14Z" style="fill:#93897d"/><path d="M203.59,192.59a.17.17,0,0,1,0-.05s0,0,0,0h-.05v.27c0,.05,0,.05.06.06h-.17s0,0,0-.06v-.27h0s0,0-.05,0a.08.08,0,0,0,0,.05h0s0-.08,0-.11h0s0,0,0,0h.23a0,0,0,0,0,0,0h0v.11Z" style="fill:#93897d"/><path d="M204,192.51a.07.07,0,0,0-.05,0v.15a.17.17,0,0,1,0,.14.15.15,0,0,1-.1,0,.13.13,0,0,1-.09,0,.14.14,0,0,1-.05-.13v-.15s0,0-.05-.06h.15s0,0,0,.06v.15c0,.07,0,.12.1.12s.11-.05.11-.14v-.06a.2.2,0,0,0,0-.09s0,0-.05,0H204Z" style="fill:#93897d"/><path d="M204.24,192.58a.09.09,0,0,0-.08-.07.06.06,0,0,0-.06.06s0,.06.07.08.1.06.1.12-.05.1-.13.1l-.08,0a.15.15,0,0,1,0-.08h0s0,.09.09.09a.07.07,0,0,0,.07-.06s0-.06-.07-.09-.1-.06-.1-.11a.11.11,0,0,1,.12-.1h.08a.28.28,0,0,0,0,.08Z" style="fill:#93897d"/><path d="M204.36,192.46a.52.52,0,0,0,0,.14h0a1.23,1.23,0,0,0,0-.13h.06Zm.08,0a.93.93,0,0,1,0,.14h0a.35.35,0,0,0,0-.13Z" style="fill:#93897d"/><path d="M197.8,184l0,.09h-.1a.19.19,0,1,1,0-.37h.1a.25.25,0,0,1,0,.09h0s0-.06-.06-.07h-.05a.13.13,0,0,0-.14.15c0,.11.06.18.14.18s.08,0,.11-.08Z" style="fill:#93897d"/><path d="M198,184.08h0s0,0,0,0,0,0,0-.08h-.11l0,.07s0,0,0,0h-.12s0,0,.06-.06l.11-.29h0c0,.09.07.19.11.29s0,.05.06.06H198Zm0-.29a1.21,1.21,0,0,0-.05.14h.1Z" style="fill:#93897d"/><path d="M198.49,183.74s-.05,0-.07.06-.09.21-.12.29h0l-.11-.3s0,0-.06,0v0h.15v0s0,0,0,0,.06.15.09.24c0-.08.07-.16.09-.23s0,0,0,0v0h.13Z" style="fill:#93897d"/><path d="M198.63,184.08h0s0,0,0,0a.34.34,0,0,1,0-.08h-.12a.25.25,0,0,0,0,.07s0,0,0,0h-.13s0,0,.06-.06l.12-.29h0c0,.09.07.19.1.29s0,.05.06.06h-.14Zm0-.29a1.21,1.21,0,0,0-.05.14h.1Z" style="fill:#93897d"/><path d="M199.16,183.74s0,0,0,0v.31h0l-.24-.29v.14a.78.78,0,0,0,0,.09s0,0,0,0h-.13a.07.07,0,0,0,.05,0v-.23s0,0,0,0a.06.06,0,0,0,0,0v0h.09l.22.27v-.21s0,0-.06,0v0h.14Z" style="fill:#93897d"/><path d="M199.47,184a.24.24,0,0,1,0,.09h-.27s.06,0,.06-.06v-.21c0-.05,0-.06-.05-.06v0h.25v.09h0l0,0s0,0,0,0h-.05s0,0,0,0v.12h.06s0,0,.05,0h0V184h0s0,0-.05,0h-.06V184s0,0,0,0h0a.06.06,0,0,0,.05,0l0,0Z" style="fill:#93897d"/><path d="M199.69,183.81s0-.07-.08-.07-.05,0-.05.06,0,0,.07.07.09.06.09.12-.05.1-.12.1l-.09,0s0,0,0-.08h0s0,.09.09.09a.06.06,0,0,0,.06-.06s0-.06-.07-.09-.09,0-.09-.11,0-.09.12-.09h.07a.28.28,0,0,0,0,.08Z" style="fill:#93897d"/><path d="M200,184s0,.08,0,.09h-.27c.05,0,.05,0,.05-.06v-.21c0-.05,0-.06,0-.06v0H200v.09h0s0,0,0,0,0,0-.06,0h0s0,0,0,0v.12h.06s0,0,0,0h0V184h0s0,0,0,0h-.06V184s0,0,0,0h.05s0,0,.05,0a.09.09,0,0,0,0,0Z" style="fill:#93897d"/><text transform="translate(196.96 169.4)" style="font-size:2.3746540546417236px;fill:#4c4338;font-family:Tangerine-Bold, Tangerine;font-weight:700;letter-spacing:-0.03002082023722641em">2006</text><text transform="translate(198.59 175.85)" style="font-size:1.6457606554031372px;fill:#970a0a;font-family:Tangerine-Bold, Tangerine;font-weight:700;letter-spacing:-0.029669031666113874em">Classico red</text><text transform="translate(196.94 183.2)" style="font-size:1.944337248802185px;fill:#970a0a;font-family:Tangerine-Bold, Tangerine;font-weight:700;letter-spacing:-0.03013558992201423em">Italia</text><path d="M190.77,171.78h-.48l0,.08a1.19,1.19,0,0,0-.07.23.1.1,0,0,0,0,.09.17.17,0,0,0,.1,0v0H190v0a.23.23,0,0,0,.12-.06.71.71,0,0,0,.1-.2s0,0,0-.11l.37-.87h0l.42,1,.05.13s0,.06.06.07a.19.19,0,0,0,.1,0v0h-.5v0a.29.29,0,0,0,.12,0,.07.07,0,0,0,0-.05.42.42,0,0,0,0-.12Zm0,0-.22-.54-.23.54Z"/><path d="M192.53,171.93v.3h-.84v0h.12l0-.06v-.8l0,0-.1,0h0v0h.48v0h0a.14.14,0,0,0-.09,0s0,0,0,0v.81a.1.1,0,0,0,0,.05h.32a.2.2,0,0,0,.08-.08.54.54,0,0,0,.08-.17Z"/><path d="M192.88,171.24h.44a.64.64,0,0,1,.34.07.37.37,0,0,1,.19.18.6.6,0,0,1,.06.27.64.64,0,0,1,0,.2,1,1,0,0,1-.09.15.42.42,0,0,1-.14.09l-.14,0h-.64v0H193l0-.05v-.8l0-.05h-.13Zm.31,0v.85a.09.09,0,0,0,0,.06l.12,0a.58.58,0,0,0,.21,0,.29.29,0,0,0,.14-.15.48.48,0,0,0,.06-.26.8.8,0,0,0,0-.23.44.44,0,0,0-.1-.16.26.26,0,0,0-.13-.08.5.5,0,0,0-.19,0Z"/><path d="M194.36,171.72a.49.49,0,0,1,.16-.37.56.56,0,0,1,.38-.14.56.56,0,0,1,.39.14.46.46,0,0,1,.16.38.48.48,0,0,1-.15.37.53.53,0,0,1-.4.14.51.51,0,0,1-.38-.14A.46.46,0,0,1,194.36,171.72Zm.17,0a.53.53,0,0,0,.1.36.34.34,0,0,0,.29.12.31.31,0,0,0,.26-.12.7.7,0,0,0,0-.72.32.32,0,0,0-.28-.12.32.32,0,0,0-.27.12A.53.53,0,0,0,194.53,171.73Z"/><path d="M197.52,171.75h0v.44h0a.81.81,0,0,0-.06-.13.58.58,0,0,1-.43.18.6.6,0,0,1-.45-.17.64.64,0,0,1-.17-.46.85.85,0,0,1,.08-.35.52.52,0,0,1,.22-.24.59.59,0,0,1,.32-.08.66.66,0,0,1,.25.05.7.7,0,0,1,.18.13.42.42,0,0,0,0-.16h0l0,.48h0a.61.61,0,0,0-.17-.36.54.54,0,0,0-.3-.1.38.38,0,0,0-.31.16.78.78,0,0,0-.12.46.7.7,0,0,0,.13.44.41.41,0,0,0,.32.15.58.58,0,0,0,.21-.05.33.33,0,0,0,.16-.17A.65.65,0,0,0,197.52,171.75Z"/><path d="M198,171.72a.48.48,0,0,1,.15-.37.58.58,0,0,1,.39-.14.6.6,0,0,1,.39.14.49.49,0,0,1,.15.38.48.48,0,0,1-.15.37.61.61,0,0,1-.78,0A.49.49,0,0,1,198,171.72Zm.17,0a.6.6,0,0,0,.09.36.36.36,0,0,0,.29.12.34.34,0,0,0,.27-.12.77.77,0,0,0,0-.72.39.39,0,0,0-.56,0A.6.6,0,0,0,198.13,171.73Z"/><path d="M200.34,172.25l-.7-.93V172a.31.31,0,0,0,0,.11s0,0,0,0l.12,0v0h-.38v0l.11,0a.12.12,0,0,0,0,0v-.64a.62.62,0,0,0,0-.16.05.05,0,0,0,0,0h-.1v0h.29l.59.78v-.6a.22.22,0,0,0,0-.09.09.09,0,0,0-.06,0l-.1,0v0h.36v0l-.1,0s0,0,0,0a.22.22,0,0,0,0,.09v.83Z"/><path d="M200.92,171.47h0v-.24h1v.24h0a.32.32,0,0,0-.05-.14.17.17,0,0,0-.06-.06h-.28V172c0,.07,0,.13,0,.15a.05.05,0,0,0,0,0s.05,0,.09,0h.05v0h-.5v0h.14s0,0,0-.05a.62.62,0,0,0,0-.16v-.71H201a.13.13,0,0,0-.07.06A.39.39,0,0,0,200.92,171.47Z"/><path d="M203.05,171.92h0l0,.31h-.83v0h0l.1,0,0,0v-.79a.11.11,0,0,0,0-.05l-.1,0v0H203l0,.25h0a.37.37,0,0,0-.05-.15s0-.05-.08-.05l-.16,0h-.13v.42h.2s0,0,0,0a.25.25,0,0,0,0-.1h0v.34h0a.31.31,0,0,0,0-.11.05.05,0,0,0,0,0h-.2V172c0,.12,0,.19,0,.21s.06,0,.12,0h.08l.13,0a.22.22,0,0,0,.09-.08A.38.38,0,0,0,203.05,171.92Z"/><path d="M205.76,172.25l-.71-.93V172c0,.05,0,.09,0,.11l.05,0,.12,0v0h-.37v0l.11,0s0,0,0,0a.28.28,0,0,0,0-.11v-.53c0-.08,0-.13,0-.16a.1.1,0,0,0,0,0h-.1v0h.29l.59.78v-.6a.22.22,0,0,0,0-.09.09.09,0,0,0-.06,0l-.1,0v0h.36v0l-.09,0a.11.11,0,0,0,0,0,.22.22,0,0,0,0,.09v.83Z"/><path d="M206.34,171.72a.48.48,0,0,1,.15-.37.56.56,0,0,1,.39-.14.56.56,0,0,1,.38.14.46.46,0,0,1,.16.38.48.48,0,0,1-.15.37.61.61,0,0,1-.78,0A.49.49,0,0,1,206.34,171.72Zm.17,0a.6.6,0,0,0,.09.36.36.36,0,0,0,.29.12.31.31,0,0,0,.26-.12.53.53,0,0,0,.1-.36.6.6,0,0,0-.09-.36.39.39,0,0,0-.56,0A.6.6,0,0,0,206.51,171.73Z"/><path d="M204.4,172.31a3,3,0,0,1-.46-.48.3.3,0,0,0-.07-.08h-.1V172c0,.08,0,.13,0,.15a.06.06,0,0,0,0,.06H204v0h-.48v0h.12a.1.1,0,0,0,0,0v-.8l0,0a.22.22,0,0,0-.1,0h0v0h.37a.79.79,0,0,1,.23,0,.34.34,0,0,1,.14.09.19.19,0,0,1,.05.14.22.22,0,0,1-.07.17.34.34,0,0,1-.21.08s.07.06.09.07l.11.15a1.07,1.07,0,0,0,.45.42.64.64,0,0,0,.36,0l-.1,0A.64.64,0,0,1,204.4,172.31Zm-.63-.6H204l.07,0a.16.16,0,0,0,0-.07.25.25,0,0,0,0-.1.21.21,0,0,0-.06-.16s-.11-.07-.22-.07h-.07Z"/><text/><line x1="106.2" y1="181.03" x2="87.44" y2="181.03" style="fill:none;stroke:#000;stroke-miterlimit:10;stroke-width:0.5px"/><polygon points="105.67 179.24 108.78 181.03 105.67 182.83 105.67 179.24"/><line x1="168.47" y1="181.03" x2="149.71" y2="181.03" style="fill:none;stroke:#000;stroke-miterlimit:10;stroke-width:0.5px"/><polygon points="167.94 179.24 171.05 181.03 167.94 182.83 167.94 179.24"/></svg>