<svg id="Calque_1" data-name="Calque 1" xmlns="http://www.w3.org/2000/svg" viewBox="0 0 60.26 53"><path d="M48.5,47.14l-.13.72-.19,0,.12-.72m.53-1.94-.17,1-.19,0,.16-1m.54-1.93-.17,1-.2,0,.17-1m.53-1.94-.17,1-.19,0,.16-1m.53-1.94-.16,1-.2,0,.17-1m.53-1.94-.17,1-.2,0,.17-1m.53-1.94-.16,1-.2,0,.17-1m.53-1.93-.17,1-.2,0,.17-1m.53-1.94-.16,1-.2,0,.17-1m.53-1.94-.17,1-.2,0,.17-1m.53-1.94-.17,1-.19,0,.16-1m.54-1.94-.17,1-.2,0,.17-1m.53-1.94-.17,1-.19,0,.16-1m.53-1.93-.16,1-.2,0,.17-1m.53-1.94-.17,1-.19,0,.16-1m.53-1.94-.16,1-.2,0,.17-1m.53-1.94-.17,1-.2,0,.17-1m.53-1.94-.16,1-.2,0,.17-1m.53-1.93-.17,1-.2,0,.17-1m.53-1.94-.17,1-.19,0,.16-1m.54-1.94-.17,1-.2,0,.17-1m.53-1.94-.17,1-.19,0,.16-1m.54-1.94-.17,1-.2,0,.17-1" style="fill:#707070"/><path d="M25.8,52l.06.31-.2,0L25.6,52m-.14-2,.17,1-.2,0-.17-1m-.15-2,.18,1-.2,0-.17-1m-.15-2,.17,1-.19,0-.17-1m-.15-2,.17,1-.2,0-.17-1m-.14-2,.17,1-.2,0-.17-1m-.15-2,.18,1-.2,0-.17-1m-.15-2,.17,1-.19,0-.17-1m-.15-2,.17,1-.2,0-.17-1m-.14-2,.17,1-.2,0-.17-1m-.15-2,.18,1-.2,0-.17-1m-.15-2,.17,1-.19,0-.17-1m-.15-2,.17,1-.2,0-.17-1m-.14-2,.17,1-.2,0-.17-1m-.15-2,.18,1-.2,0-.17-1m-.15-2,.17,1-.19,0-.18-1m-.14-2,.17,1-.2,0-.17-1m-.14-2,.17,1-.2,0-.17-1m-.15-2,.18,1-.2,0-.17-1m-.15-2,.17,1-.19,0-.18-1m-.14-2,.17,1-.2,0-.17-1m-.14-2,.17,1-.2,0-.17-1m-.15-2,.18,1-.2,0-.17-1m-.15-2,.17,1-.19,0-.18-1m-.14-2,.17,1-.2,0-.17-1m-.14-2,.17,1-.2,0-.17-1m-.15-2,.18,1-.2,0-.17-1" style="fill:#707070"/><path d="M16.84,51.23l.05.32-.19,0-.06-.31m-.14-2,.17,1-.2,0-.17-1m-.15-2,.18,1-.2,0-.17-1m-.15-2,.17,1-.19,0-.18-1m-.14-2,.17,1-.2,0-.17-1m-.14-2,.17,1-.2,0-.17-1m-.15-2,.18,1-.2,0-.17-1m-.15-2,.17,1-.19,0-.18-1m-.14-2,.17,1-.2,0-.17-1m-.14-2,.17,1-.2,0-.17-1m-.15-2,.17,1-.19,0-.17-1m-.15-2,.17,1-.19,0-.18-1m-.14-2,.17,1-.2,0-.17-1m-.14-2,.17,1-.2,0-.17-1m-.15-2,.17,1-.19,0-.17-1m-.15-2,.17,1-.19,0-.18-1m-.14-2,.17,1-.2,0-.17-1m-.14-2,.17,1-.2,0-.17-1m-.15-2,.17,1-.19,0-.17-1m-.15-2,.17,1-.19,0-.18-1m-.14-2,.17,1-.2,0-.17-1m-.14-2,.17,1-.2,0-.17-1m-.15-2,.17,1-.19,0-.17-1M9,5.91l.17,1-.19,0L8.76,6m-.14-2,.17,1-.2,0L8.42,4M8.28,2l.17,1-.2,0L8.08,2M7.93,0,8.1,1,7.91,1,7.74,0" style="fill:#707070"/><path d="M21.08,52l-.17,1-.2,0,.17-1M21.41,50l-.16,1-.2,0,.17-1m.53-1.94-.17,1-.19,0,.17-1m.53-1.94-.17,1-.2,0,.17-1m.54-1.94-.17,1-.2,0,.17-1m.54-1.93-.17,1-.2,0,.17-1m.53-1.94-.17,1-.19,0,.17-1m.53-1.94-.17,1-.2,0,.17-1m.54-1.94-.17,1-.2,0,.17-1m.54-1.94-.17,1-.2,0,.17-1m.53-1.94-.17,1-.19,0,.17-1m.53-1.94-.17,1-.19,0,.16-1m.54-1.93-.17,1-.2,0,.17-1m.54-1.93-.17,1-.2,0,.17-1m.53-1.94-.16,1-.2,0,.17-1m.53-1.94-.17,1-.19,0,.16-1m.54-1.94-.17,1-.2,0,.17-1m.54-1.94-.17,1-.2,0,.17-1m.53-1.94-.16,1-.2,0,.17-1m.53-1.94-.17,1-.19,0,.16-1m.54-1.93-.17,1-.2,0,.17-1m.54-1.93-.17,1-.2,0,.17-1m.53-1.94-.16,1-.2,0,.17-1m.53-1.94-.17,1-.19,0,.17-1m.53-1.94-.17,1-.2,0,.17-1m.54-1.94-.17,1-.2,0,.17-1M29.86.76l-.17,1-.2,0,.17-1" style="fill:#707070"/><path d="M20.9,7.42l-.16,0,0-.2.16,0m1.93.57-1-.18,0-.2,1,.18m1.92.57-1-.19,0-.19,1,.18m1.93.57-1-.19,0-.19,1,.18m1.93.57-1-.19,0-.2,1,.19m1.93.56-1-.18,0-.2,1,.19m1.93.56-1-.18,0-.2,1,.19m1.93.56-1-.18,0-.2,1,.18m1.93.57-1-.19,0-.19,1,.18m1.93.57-1-.19,0-.19,1,.18m1.93.57-1-.19,0-.19,1,.18m1.93.56-1-.18,0-.2,1,.19m1.93.56-1-.18,0-.2,1,.19m1.93.56-1-.18,0-.2,1,.18m1.92.57-1-.18,0-.2,1,.18m1.93.57-1-.19,0-.19,1,.18m1.93.57-1-.19,0-.19,1,.18m1.93.57-1-.19,0-.2,1,.19m1.93.56-1-.18,0-.2,1,.19m1.93.56-1-.18,0-.2,1,.19m1.93.56-1-.18,0-.2,1,.18" style="fill:#707070"/><path d="M22.29,31.49l-.55-.1,0-.2.56.1m1.93.55-1-.18,0-.19,1,.17m1.93.55-1-.18,0-.19,1,.17m1.93.55-1-.18,0-.19,1,.17m1.93.55-1-.18,0-.19,1,.17m1.93.55-1-.18,0-.19,1,.17m1.93.55-1-.18,0-.19,1,.17m1.94.55-1-.18,0-.19,1,.17m1.94.55-1-.18,0-.19,1,.17m1.94.55-1-.18,0-.19,1,.17M42,35l-1-.17,0-.2,1,.17m1.94.55-1-.17,0-.2,1,.17m1.93.55-1-.17,0-.2,1,.17m1.93.55-1-.17,0-.2,1,.17m1.93.55-1-.17,0-.2,1,.17m1.93.55-1-.17,0-.2,1,.17m1.93.55-1-.17,0-.2,1,.17m1.93.55-1-.17,0-.2,1,.17m1.93.55-1-.17,0-.2,1,.17" style="fill:#707070"/><path d="M24.73,29.36l1-.16,0,.2-1,.15m-2,.12,1-.16,0,.2-1,.16m-2,.11,1-.15,0,.19-1,.16m-2,.12,1-.16,0,.2-1,.16m-2,.11,1-.15,0,.19-1,.16m-2,.12,1-.16,0,.2-1,.16m-2,.11,1-.15,0,.19-1,.16m-2,.12,1-.16,0,.2-1,.16m-2,.11,1-.15,0,.19-1,.16m-2,.12,1-.16,0,.2-1,.16M5,32.5l1-.15,0,.19L5,32.7m-2,.12,1-.16,0,.2L3,33" style="fill:#707070"/><path d="M33.54,6.62l1-.17,0,.2-1,.16m-2,.13,1-.16,0,.2-1,.16m-2,.13,1-.16,0,.2-1,.16m-2,.13,1-.16,0,.19-1,.17m-2,.13,1-.17,0,.2-1,.17m-2,.13,1-.17,0,.2-1,.16m-2,.13,1-.16,0,.2-1,.16m-2,.13,1-.16,0,.2-1,.16m-2,.13,1-.16,0,.19-1,.17m-2,.13,1-.17,0,.2-1,.17m-2,.13,1-.17,0,.2-1,.16m-2,.14,1-.17,0,.2-1,.16m-2,.13,1-.16,0,.2-1,.16m-2,.13,1-.16,0,.19-1,.17m-2,.13,1-.16,0,.19-1,.17m-2,.13,1-.17,0,.2-1,.16m-2,.14,1-.17,0,.2-1,.16m-2,.13L1,12l0,.2-1,.16" style="fill:#707070"/><path d="M14.86,16.1l.63,3.57,2.83-.5.65,3.7-2.89.51.43,2.4c.12.68.07,1.31,1.11,1.13s1.31-1.52,1.31-1.52L21,28.08s-.61,2-3.7,2.54c-4.11.79-4.74-3.25-4.74-3.25L12,24.1l-1.36.24L10,20.64l1.36-.24-.63-3.58Z"/><path d="M25.1,24.5,21,25.23,19,14.35l4.14-.73Zm-2.45-14a2.11,2.11,0,1,1-4.15.73,2.11,2.11,0,1,1,4.15-.73Z"/><path d="M31.78,25.14a1.67,1.67,0,0,0-1.32.3,1.94,1.94,0,0,0-.72,1.25A2,2,0,0,0,30,28.2a1.63,1.63,0,0,0,1.14.72c1,.18,1.75-.46,2-1.64a1.68,1.68,0,0,0-1.3-2.13Zm-.52,7.71A3.55,3.55,0,0,1,29,31.67l-.14.84-4.16-.74,2.83-16.08,4.16.74-1,5.82a3.77,3.77,0,0,1,1.07-.46,4.26,4.26,0,0,1,1.67-.05,4.6,4.6,0,0,1,3.16,2.17,6,6,0,0,1,.69,1.95,6.38,6.38,0,0,1,0,2.3,6.25,6.25,0,0,1-.75,2.18,5.71,5.71,0,0,1-1.33,1.58,4.82,4.82,0,0,1-1.8.89A5.55,5.55,0,0,1,31.26,32.85Z"/><path d="M38.31,18.07a1.63,1.63,0,1,0,.57-3.21,1.63,1.63,0,0,0-.57,3.21Zm-5.17-2.59a5.56,5.56,0,1,1,4.51,6.45A5.54,5.54,0,0,1,33.14,15.48Z"/><path d="M44.31,26.09a1.72,1.72,0,0,0,1.31,2.22A1.69,1.69,0,0,0,47,28a2.12,2.12,0,0,0,.74-1.35,2,2,0,0,0-.25-1.45,1.78,1.78,0,0,0-1.16-.71A1.71,1.71,0,0,0,44.31,26.09Zm-2.15,5.12a5,5,0,0,1-1.38-1.45,5.8,5.8,0,0,1-.72-2,6.68,6.68,0,0,1,0-2.31,6.82,6.82,0,0,1,.74-2.19,5.91,5.91,0,0,1,1.33-1.58,4.61,4.61,0,0,1,3.72-1,3.75,3.75,0,0,1,1.54.63,4.14,4.14,0,0,1,.89.83l1-5.89,4.16.73L50.69,33.12l-4.16-.73.15-.83a3.72,3.72,0,0,1-2.55.41A5.5,5.5,0,0,1,42.16,31.21Z"/><path d="M22.29,31.49l-.55-.1,0-.2.56.1m1.93.55-1-.18,0-.19,1,.17m1.93.55-1-.18,0-.19,1,.17m1.93.55-1-.18,0-.19,1,.17m1.93.55-1-.18,0-.19,1,.17m1.93.55-1-.18,0-.19,1,.17m1.93.55-1-.18,0-.19,1,.17m1.94.55-1-.18,0-.19,1,.17m1.94.55-1-.18,0-.19,1,.17m1.94.55-1-.18,0-.19,1,.17M42,35l-1-.17,0-.2,1,.17m1.94.55-1-.17,0-.2,1,.17m1.93.55-1-.17,0-.2,1,.17m1.93.55-1-.17,0-.2,1,.17m1.93.55-1-.17,0-.2,1,.17m1.93.55-1-.17,0-.2,1,.17m1.93.55-1-.17,0-.2,1,.17m1.93.55-1-.17,0-.2,1,.17m1.93.55-1-.17,0-.2,1,.17" style="fill:#707070"/></svg>