<svg id="Calque_1" data-name="Calque 1" xmlns="http://www.w3.org/2000/svg" viewBox="0 0 297 170"><rect width="149" height="85" style="fill:#2d1c0a"/><rect y="85" width="149" height="85" style="fill:#c784f5"/><rect x="149" width="148" height="85" style="fill:#40ed8b"/><rect x="149" y="85" width="148" height="85" style="fill:#fff"/><path d="M57.6,37.3l.63,3.57,2.83-.5.66,3.71-2.89.51.42,2.4c.12.68.07,1.31,1.11,1.13s1.31-1.52,1.31-1.52l2.1,2.69s-.61,2-3.71,2.54a3.88,3.88,0,0,1-4.74-3.25l-.58-3.27-1.36.24-.65-3.71,1.36-.24L53.46,38Z" style="fill:#fff"/><path d="M67.84,45.71l-4.14.73L61.78,35.56l4.14-.73Zm-2.44-14A2.11,2.11,0,1,1,63,30,2.12,2.12,0,0,1,65.4,31.74Z" style="fill:#fff"/><path d="M74.53,46.35a1.65,1.65,0,0,0-1.32.3,1.92,1.92,0,0,0-.73,1.25,2.09,2.09,0,0,0,.24,1.51,1.65,1.65,0,0,0,1.14.72c1,.18,1.76-.47,2-1.64a1.69,1.69,0,0,0-1.29-2.14ZM74,54.05a3.51,3.51,0,0,1-2.23-1.17l-.15.83L67.47,53,70.31,36.9l4.16.73-1,5.82A4.35,4.35,0,0,1,74.51,43a4.46,4.46,0,0,1,1.67-.06,4.61,4.61,0,0,1,3.16,2.18,5.46,5.46,0,0,1,.69,2,6.1,6.1,0,0,1,0,2.29,6.32,6.32,0,0,1-.76,2.19,5.71,5.71,0,0,1-1.33,1.58,4.86,4.86,0,0,1-1.79.89A5.35,5.35,0,0,1,74,54.05Z" style="fill:#fff"/><path d="M81.06,39.28a1.63,1.63,0,1,0-1.31-1.89A1.63,1.63,0,0,0,81.06,39.28Zm-5.18-2.59a5.56,5.56,0,1,1,4.51,6.44A5.56,5.56,0,0,1,75.88,36.69Z" style="fill:#fff"/><path d="M87.06,47.3a1.72,1.72,0,0,0,1.3,2.22,1.69,1.69,0,0,0,1.33-.27,2.15,2.15,0,0,0,.75-1.35,2.11,2.11,0,0,0-.25-1.45A1.77,1.77,0,0,0,89,45.74,1.7,1.7,0,0,0,87.06,47.3Zm-2.15,5.12A4.89,4.89,0,0,1,83.53,51a5.9,5.9,0,0,1-.73-2,6.45,6.45,0,0,1,.06-2.31,6.81,6.81,0,0,1,.73-2.19,6.1,6.1,0,0,1,1.33-1.58,4.56,4.56,0,0,1,3.72-1,3.92,3.92,0,0,1,1.55.62,4.14,4.14,0,0,1,.88.84l1-5.89,4.16.73L93.43,54.33l-4.15-.73.14-.83a3.64,3.64,0,0,1-2.54.4A5.17,5.17,0,0,1,84.91,52.42Z" style="fill:#fff"/><path d="M57.6,122.64l.63,3.57,2.83-.5.66,3.7-2.89.51.42,2.4c.12.68.07,1.31,1.11,1.13s1.31-1.52,1.31-1.52l2.1,2.69s-.61,2-3.71,2.55c-4.11.78-4.74-3.26-4.74-3.26l-.58-3.27-1.36.24-.65-3.7,1.36-.24-.63-3.57Z" style="fill:#fff"/><path d="M67.84,131.05l-4.14.73-1.92-10.89,4.14-.73Zm-2.44-14A2.11,2.11,0,1,1,63,115.37,2.11,2.11,0,0,1,65.4,117.08Z" style="fill:#fff"/><path d="M74.53,131.69a1.61,1.61,0,0,0-1.32.29,2,2,0,0,0-.73,1.26,2.07,2.07,0,0,0,.24,1.5,1.69,1.69,0,0,0,1.14.73c1,.17,1.76-.47,2-1.64a1.69,1.69,0,0,0-1.29-2.14Zm-.52,7.7a3.51,3.51,0,0,1-2.23-1.17l-.15.83-4.16-.73,2.84-16.08,4.16.73-1,5.82a4,4,0,0,1,1.07-.45,4.08,4.08,0,0,1,1.67-.06,4.6,4.6,0,0,1,3.16,2.17,5.51,5.51,0,0,1,.69,2,6.1,6.1,0,0,1,0,2.29,6.26,6.26,0,0,1-.76,2.18,5.56,5.56,0,0,1-1.33,1.58,4.86,4.86,0,0,1-1.79.89A5.55,5.55,0,0,1,74,139.39Z" style="fill:#fff"/><path d="M81.06,124.61a1.63,1.63,0,1,0-1.31-1.88A1.62,1.62,0,0,0,81.06,124.61ZM75.88,122a5.57,5.57,0,1,1,4.51,6.45A5.55,5.55,0,0,1,75.88,122Z" style="fill:#fff"/><path d="M87.06,132.64a1.71,1.71,0,0,0,1.3,2.21,1.69,1.69,0,0,0,1.33-.27,2.13,2.13,0,0,0,.75-1.35,2.07,2.07,0,0,0-.25-1.44,1.73,1.73,0,0,0-1.16-.71A1.7,1.7,0,0,0,87.06,132.64Zm-2.15,5.11a4.66,4.66,0,0,1-1.38-1.45,5.81,5.81,0,0,1-.73-2,6.46,6.46,0,0,1,.06-2.31,6.81,6.81,0,0,1,.73-2.19,5.89,5.89,0,0,1,1.33-1.57,4.56,4.56,0,0,1,3.72-1,3.92,3.92,0,0,1,1.55.62,3.7,3.7,0,0,1,.88.84l1-5.9,4.16.73-2.84,16.08-4.15-.73.14-.83a3.58,3.58,0,0,1-2.54.41A5.36,5.36,0,0,1,84.91,137.75Z" style="fill:#fff"/><path d="M206.1,122.64l.63,3.57,2.83-.5.66,3.7-2.89.51.42,2.4c.12.68.07,1.31,1.11,1.13s1.31-1.52,1.31-1.52l2.1,2.69s-.61,2-3.71,2.55c-4.11.78-4.74-3.26-4.74-3.26l-.58-3.27-1.36.24-.65-3.7,1.36-.24-.63-3.57Z" style="fill:#c784f5"/><path d="M216.34,131.05l-4.14.73-1.92-10.89,4.14-.73Zm-2.44-14a2.11,2.11,0,1,1-2.45-1.71A2.11,2.11,0,0,1,213.9,117.08Z" style="fill:#c784f5"/><path d="M223,131.69a1.61,1.61,0,0,0-1.32.29,2,2,0,0,0-.73,1.26,2.07,2.07,0,0,0,.24,1.5,1.69,1.69,0,0,0,1.14.73c1,.17,1.76-.47,2-1.64a1.69,1.69,0,0,0-1.29-2.14Zm-.52,7.7a3.51,3.51,0,0,1-2.23-1.17l-.15.83-4.16-.73,2.84-16.08L223,123l-1,5.82a4,4,0,0,1,1.07-.45,4.08,4.08,0,0,1,1.67-.06,4.6,4.6,0,0,1,3.16,2.17,5.51,5.51,0,0,1,.69,2,6.1,6.1,0,0,1,0,2.29,6.26,6.26,0,0,1-.76,2.18,5.56,5.56,0,0,1-1.33,1.58,4.86,4.86,0,0,1-1.79.89A5.55,5.55,0,0,1,222.51,139.39Z" style="fill:#c784f5"/><path d="M229.56,124.61a1.63,1.63,0,1,0-1.31-1.88A1.62,1.62,0,0,0,229.56,124.61ZM224.38,122a5.57,5.57,0,1,1,4.51,6.45A5.55,5.55,0,0,1,224.38,122Z" style="fill:#c784f5"/><path d="M235.56,132.64a1.71,1.71,0,0,0,1.3,2.21,1.69,1.69,0,0,0,1.33-.27,2.13,2.13,0,0,0,.75-1.35,2.07,2.07,0,0,0-.25-1.44,1.73,1.73,0,0,0-1.16-.71A1.7,1.7,0,0,0,235.56,132.64Zm-2.15,5.11A4.66,4.66,0,0,1,232,136.3a5.81,5.81,0,0,1-.73-2,6.46,6.46,0,0,1,.06-2.31,6.81,6.81,0,0,1,.73-2.19,5.89,5.89,0,0,1,1.33-1.57,4.56,4.56,0,0,1,3.72-1,3.92,3.92,0,0,1,1.55.62,3.7,3.7,0,0,1,.88.84l1-5.9,4.16.73-2.84,16.08-4.15-.73.14-.83a3.58,3.58,0,0,1-2.54.41A5.36,5.36,0,0,1,233.41,137.75Z" style="fill:#c784f5"/><path d="M206.87,37.3l.63,3.57,2.83-.5.66,3.71-2.89.51.42,2.4c.12.68.07,1.31,1.11,1.13s1.31-1.52,1.31-1.52l2.1,2.69s-.61,2-3.71,2.54a3.88,3.88,0,0,1-4.74-3.25L204,45.31l-1.36.24L202,41.84l1.36-.24L202.73,38Z" style="fill:#fff"/><path d="M217.11,45.71l-4.14.73-1.92-10.88,4.14-.73Zm-2.44-14A2.11,2.11,0,1,1,212.22,30,2.12,2.12,0,0,1,214.67,31.74Z" style="fill:#fff"/><path d="M223.8,46.35a1.65,1.65,0,0,0-1.32.3,1.92,1.92,0,0,0-.73,1.25,2.09,2.09,0,0,0,.24,1.51,1.65,1.65,0,0,0,1.14.72c1,.18,1.76-.47,2-1.64a1.69,1.69,0,0,0-1.29-2.14Zm-.52,7.7a3.51,3.51,0,0,1-2.23-1.17l-.15.83L216.74,53l2.84-16.08,4.16.73-1,5.82a4.35,4.35,0,0,1,1.07-.45,4.46,4.46,0,0,1,1.67-.06,4.61,4.61,0,0,1,3.16,2.18,5.66,5.66,0,0,1,.69,2,6.1,6.1,0,0,1,0,2.29,6.32,6.32,0,0,1-.76,2.19,5.71,5.71,0,0,1-1.33,1.58,4.86,4.86,0,0,1-1.79.89A5.36,5.36,0,0,1,223.28,54.05Z" style="fill:#fff"/><path d="M230.32,39.28a1.64,1.64,0,1,0-1.3-1.89A1.63,1.63,0,0,0,230.32,39.28Zm-5.17-2.59a5.56,5.56,0,1,1,4.51,6.44A5.56,5.56,0,0,1,225.15,36.69Z" style="fill:#fff"/><path d="M236.33,47.3a1.72,1.72,0,0,0,1.3,2.22,1.69,1.69,0,0,0,1.33-.27,2.15,2.15,0,0,0,.75-1.35,2.11,2.11,0,0,0-.25-1.45,1.77,1.77,0,0,0-1.16-.71A1.7,1.7,0,0,0,236.33,47.3Zm-2.15,5.12A4.89,4.89,0,0,1,232.8,51a5.9,5.9,0,0,1-.73-2,6.45,6.45,0,0,1,.06-2.31,6.81,6.81,0,0,1,.73-2.19,6.1,6.1,0,0,1,1.33-1.58,4.56,4.56,0,0,1,3.72-1,3.92,3.92,0,0,1,1.55.62,4.14,4.14,0,0,1,.88.84l1-5.89,4.16.73L242.7,54.33l-4.15-.73.14-.83a3.64,3.64,0,0,1-2.54.4A5.17,5.17,0,0,1,234.18,52.42Z" style="fill:#fff"/></svg>